<svg width="270" height="167" viewBox="0 0 270 167" fill="none" xmlns="http://www.w3.org/2000/svg">
<path d="M92.014 162V153.576H97.058C97.6907 153.576 98.2367 153.667 98.696 153.849C99.1553 154.022 99.5107 154.295 99.762 154.668C100.013 155.032 100.139 155.5 100.139 156.072C100.139 156.462 100.074 156.796 99.944 157.073C99.814 157.342 99.632 157.563 99.398 157.736C99.164 157.909 98.891 158.044 98.579 158.139C98.2757 158.226 97.9463 158.282 97.591 158.308L97.461 158.217C98.0157 158.234 98.4793 158.291 98.852 158.386C99.2247 158.473 99.5063 158.637 99.697 158.88C99.8877 159.123 99.983 159.482 99.983 159.959V162H98.475V160.037C98.475 159.708 98.4187 159.452 98.306 159.27C98.1933 159.088 97.994 158.962 97.708 158.893C97.422 158.815 97.019 158.776 96.499 158.776H93.509V162H92.014ZM93.509 157.554H97.058C97.578 157.554 97.9723 157.428 98.241 157.177C98.5097 156.917 98.644 156.575 98.644 156.15C98.644 155.743 98.5097 155.431 98.241 155.214C97.9723 154.997 97.578 154.889 97.058 154.889H93.509V157.554ZM103.449 158.425V160.713H109.429V162H101.954V153.576H109.416V154.863H103.449V157.19H108.337V158.425H103.449ZM112.405 160.037V158.75H117.475V160.037H112.405ZM110.442 162L114.147 153.576H115.759L119.503 162H117.865L114.628 154.395H115.278L112.054 162H110.442ZM124.877 153.576C125.787 153.576 126.55 153.689 127.165 153.914C127.781 154.139 128.27 154.447 128.634 154.837C129.007 155.218 129.271 155.66 129.427 156.163C129.583 156.666 129.661 157.194 129.661 157.749C129.661 158.312 129.575 158.85 129.401 159.361C129.228 159.872 128.951 160.327 128.569 160.726C128.197 161.116 127.707 161.428 127.1 161.662C126.494 161.887 125.753 162 124.877 162H120.756V153.576H124.877ZM122.251 160.687H124.851C125.493 160.687 126.026 160.605 126.45 160.44C126.875 160.275 127.209 160.054 127.451 159.777C127.703 159.5 127.88 159.188 127.984 158.841C128.097 158.486 128.153 158.122 128.153 157.749C128.153 157.385 128.097 157.034 127.984 156.696C127.88 156.349 127.703 156.042 127.451 155.773C127.209 155.504 126.875 155.292 126.45 155.136C126.026 154.971 125.493 154.889 124.851 154.889H122.251V160.687ZM140.359 161.22H139.67L144.181 153.576H145.676V162H144.181V155.708L144.519 155.812L140.84 162H139.202L135.523 155.825L135.861 155.734V162H134.366V153.576H135.861L140.359 161.22ZM152.297 162.156C151.301 162.156 150.43 161.978 149.684 161.623C148.948 161.268 148.376 160.765 147.968 160.115C147.57 159.465 147.37 158.689 147.37 157.788C147.37 156.887 147.57 156.111 147.968 155.461C148.376 154.802 148.948 154.3 149.684 153.953C150.43 153.598 151.301 153.42 152.297 153.42C153.311 153.42 154.182 153.598 154.91 153.953C155.647 154.3 156.219 154.802 156.626 155.461C157.034 156.111 157.237 156.887 157.237 157.788C157.237 158.689 157.034 159.465 156.626 160.115C156.219 160.765 155.647 161.268 154.91 161.623C154.182 161.978 153.311 162.156 152.297 162.156ZM152.297 160.83C152.956 160.83 153.537 160.722 154.039 160.505C154.551 160.28 154.949 159.942 155.235 159.491C155.53 159.04 155.677 158.473 155.677 157.788C155.677 157.112 155.53 156.549 155.235 156.098C154.949 155.647 154.551 155.309 154.039 155.084C153.537 154.859 152.956 154.746 152.297 154.746C151.647 154.746 151.062 154.859 150.542 155.084C150.031 155.309 149.628 155.647 149.333 156.098C149.039 156.549 148.891 157.112 148.891 157.788C148.891 158.473 149.039 159.04 149.333 159.491C149.628 159.942 150.031 160.28 150.542 160.505C151.062 160.722 151.647 160.83 152.297 160.83ZM158.931 162V153.576H163.975C164.608 153.576 165.154 153.667 165.613 153.849C166.072 154.022 166.428 154.295 166.679 154.668C166.93 155.032 167.056 155.5 167.056 156.072C167.056 156.462 166.991 156.796 166.861 157.073C166.731 157.342 166.549 157.563 166.315 157.736C166.081 157.909 165.808 158.044 165.496 158.139C165.193 158.226 164.863 158.282 164.508 158.308L164.378 158.217C164.933 158.234 165.396 158.291 165.769 158.386C166.142 158.473 166.423 158.637 166.614 158.88C166.805 159.123 166.9 159.482 166.9 159.959V162H165.392V160.037C165.392 159.708 165.336 159.452 165.223 159.27C165.11 159.088 164.911 158.962 164.625 158.893C164.339 158.815 163.936 158.776 163.416 158.776H160.426V162H158.931ZM160.426 157.554H163.975C164.495 157.554 164.889 157.428 165.158 157.177C165.427 156.917 165.561 156.575 165.561 156.15C165.561 155.743 165.427 155.431 165.158 155.214C164.889 154.997 164.495 154.889 163.975 154.889H160.426V157.554ZM170.366 158.425V160.713H176.346V162H168.871V153.576H176.333V154.863H170.366V157.19H175.254V158.425H170.366Z" fill="black"/>
<path d="M187.193 161.806C187.014 161.627 187 161.347 187.149 161.151L187.193 161.099L194.264 154.028C194.46 153.833 194.776 153.833 194.972 154.028C195.151 154.207 195.165 154.488 195.016 154.684L194.972 154.736L187.901 161.806C187.705 162.002 187.389 162.002 187.193 161.806Z" fill="black"/>
<path d="M188.927 154.894C188.651 154.894 188.427 154.671 188.426 154.395C188.426 154.144 188.61 153.936 188.851 153.899L188.925 153.894L194.617 153.882C194.869 153.881 195.077 154.067 195.113 154.309L195.118 154.383L195.106 160.075C195.106 160.351 194.881 160.574 194.605 160.574C194.354 160.573 194.147 160.388 194.111 160.147L194.106 160.073L194.117 154.883L188.927 154.894Z" fill="black"/>
<path d="M93.232 61V50.57H94.352V59.95H98.972V61H93.232ZM104.03 61.168C103.32 61.168 102.676 61 102.098 60.664C101.519 60.3187 101.057 59.852 100.712 59.264C100.376 58.6667 100.208 57.99 100.208 57.234C100.208 56.4873 100.376 55.82 100.712 55.232C101.048 54.644 101.5 54.182 102.07 53.846C102.648 53.5007 103.302 53.328 104.03 53.328C104.758 53.328 105.406 53.496 105.976 53.832C106.554 54.168 107.007 54.63 107.334 55.218C107.67 55.806 107.838 56.478 107.838 57.234C107.838 57.9993 107.665 58.6807 107.32 59.278C106.974 59.866 106.512 60.328 105.934 60.664C105.364 61 104.73 61.168 104.03 61.168ZM104.03 60.118C104.534 60.118 104.986 59.992 105.388 59.74C105.798 59.488 106.12 59.1427 106.354 58.704C106.596 58.2653 106.718 57.7753 106.718 57.234C106.718 56.6927 106.596 56.2073 106.354 55.778C106.12 55.3487 105.798 55.008 105.388 54.756C104.986 54.504 104.534 54.378 104.03 54.378C103.526 54.378 103.068 54.504 102.658 54.756C102.256 55.008 101.934 55.3487 101.692 55.778C101.449 56.2073 101.328 56.6927 101.328 57.234C101.328 57.7753 101.449 58.2653 101.692 58.704C101.934 59.1427 102.256 59.488 102.658 59.74C103.068 59.992 103.526 60.118 104.03 60.118ZM109.689 61V53.496H110.739V54.728L110.599 54.546C110.777 54.1913 111.043 53.9113 111.397 53.706C111.761 53.5007 112.2 53.398 112.713 53.398H113.189V54.448H112.531C111.99 54.448 111.556 54.616 111.229 54.952C110.903 55.288 110.739 55.764 110.739 56.38V61H109.689ZM117.836 61.168C117.136 61.168 116.501 61 115.932 60.664C115.372 60.3187 114.928 59.8473 114.602 59.25C114.275 58.6527 114.112 57.976 114.112 57.22C114.112 56.464 114.27 55.7967 114.588 55.218C114.905 54.63 115.334 54.168 115.876 53.832C116.426 53.496 117.042 53.328 117.724 53.328C118.265 53.328 118.746 53.4307 119.166 53.636C119.595 53.832 119.959 54.1027 120.258 54.448C120.556 54.784 120.785 55.1667 120.944 55.596C121.102 56.016 121.182 56.45 121.182 56.898C121.182 56.9913 121.177 57.0987 121.168 57.22C121.158 57.332 121.144 57.4487 121.126 57.57H114.784V56.59H120.524L120.02 57.01C120.104 56.4967 120.043 56.0393 119.838 55.638C119.642 55.2273 119.357 54.9053 118.984 54.672C118.61 54.4293 118.19 54.308 117.724 54.308C117.257 54.308 116.823 54.4293 116.422 54.672C116.03 54.9147 115.722 55.2553 115.498 55.694C115.274 56.1233 115.185 56.6367 115.232 57.234C115.185 57.8313 115.278 58.354 115.512 58.802C115.754 59.2407 116.081 59.5813 116.492 59.824C116.912 60.0667 117.36 60.188 117.836 60.188C118.386 60.188 118.848 60.0573 119.222 59.796C119.595 59.5347 119.898 59.208 120.132 58.816L121.028 59.292C120.878 59.628 120.65 59.9407 120.342 60.23C120.034 60.51 119.665 60.7387 119.236 60.916C118.816 61.084 118.349 61.168 117.836 61.168ZM123.033 61V53.496H124.083V54.924L123.915 54.714C124.12 54.2753 124.424 53.9347 124.825 53.692C125.236 53.4493 125.684 53.328 126.169 53.328C126.748 53.328 127.27 53.4913 127.737 53.818C128.204 54.1447 128.535 54.5693 128.731 55.092L128.437 55.106C128.624 54.5273 128.946 54.0887 129.403 53.79C129.87 53.482 130.383 53.328 130.943 53.328C131.447 53.328 131.909 53.4493 132.329 53.692C132.758 53.9347 133.099 54.2707 133.351 54.7C133.612 55.12 133.743 55.596 133.743 56.128V61H132.693V56.534C132.693 56.0767 132.609 55.6893 132.441 55.372C132.282 55.0547 132.063 54.812 131.783 54.644C131.503 54.4667 131.181 54.378 130.817 54.378C130.462 54.378 130.14 54.4667 129.851 54.644C129.562 54.812 129.333 55.0593 129.165 55.386C128.997 55.7033 128.913 56.086 128.913 56.534V61H127.863V56.534C127.863 56.0767 127.779 55.6893 127.611 55.372C127.452 55.0547 127.233 54.812 126.953 54.644C126.673 54.4667 126.351 54.378 125.987 54.378C125.623 54.378 125.296 54.4667 125.007 54.644C124.727 54.812 124.503 55.0593 124.335 55.386C124.167 55.7033 124.083 56.086 124.083 56.534V61H123.033ZM138.127 61V53.496H139.177V61H138.127ZM138.127 52.11V50.57H139.177V52.11H138.127ZM141.326 63.8V53.496H142.376V55.176L142.208 54.882C142.507 54.406 142.903 54.028 143.398 53.748C143.902 53.468 144.476 53.328 145.12 53.328C145.829 53.328 146.459 53.5007 147.01 53.846C147.57 54.182 148.009 54.644 148.326 55.232C148.653 55.82 148.816 56.492 148.816 57.248C148.816 57.9947 148.653 58.6667 148.326 59.264C148.009 59.852 147.57 60.3187 147.01 60.664C146.459 61 145.829 61.168 145.12 61.168C144.476 61.168 143.893 61.0233 143.37 60.734C142.857 60.4353 142.469 60.0153 142.208 59.474L142.376 59.32V63.8H141.326ZM145.064 60.118C145.568 60.118 146.016 59.992 146.408 59.74C146.809 59.488 147.122 59.1473 147.346 58.718C147.579 58.2793 147.696 57.7893 147.696 57.248C147.696 56.6973 147.579 56.2073 147.346 55.778C147.122 55.3487 146.809 55.008 146.408 54.756C146.016 54.504 145.568 54.378 145.064 54.378C144.56 54.378 144.103 54.504 143.692 54.756C143.291 55.008 142.969 55.3533 142.726 55.792C142.493 56.2213 142.376 56.7067 142.376 57.248C142.376 57.7893 142.493 58.2793 142.726 58.718C142.969 59.1473 143.291 59.488 143.692 59.74C144.103 59.992 144.56 60.118 145.064 60.118ZM153.268 61.168C152.549 61.168 151.919 60.986 151.378 60.622C150.837 60.258 150.445 59.7633 150.202 59.138L151.084 58.718C151.299 59.1753 151.597 59.5393 151.98 59.81C152.372 60.0807 152.801 60.216 153.268 60.216C153.716 60.216 154.094 60.1087 154.402 59.894C154.71 59.67 154.864 59.3807 154.864 59.026C154.864 58.7647 154.789 58.5593 154.64 58.41C154.491 58.2513 154.318 58.13 154.122 58.046C153.926 57.962 153.753 57.9013 153.604 57.864L152.526 57.556C151.835 57.36 151.336 57.0847 151.028 56.73C150.72 56.3753 150.566 55.9647 150.566 55.498C150.566 55.0593 150.678 54.6767 150.902 54.35C151.126 54.0233 151.429 53.7713 151.812 53.594C152.195 53.4167 152.619 53.328 153.086 53.328C153.721 53.328 154.295 53.496 154.808 53.832C155.331 54.1587 155.699 54.616 155.914 55.204L155.018 55.624C154.831 55.204 154.561 54.8773 154.206 54.644C153.861 54.4013 153.473 54.28 153.044 54.28C152.624 54.28 152.288 54.3873 152.036 54.602C151.784 54.8167 151.658 55.0873 151.658 55.414C151.658 55.666 151.723 55.8667 151.854 56.016C151.985 56.1653 152.134 56.2773 152.302 56.352C152.479 56.4267 152.633 56.4827 152.764 56.52L154.01 56.884C154.617 57.0613 155.088 57.3367 155.424 57.71C155.769 58.0833 155.942 58.522 155.942 59.026C155.942 59.4367 155.825 59.8053 155.592 60.132C155.368 60.4587 155.055 60.7153 154.654 60.902C154.253 61.0793 153.791 61.168 153.268 61.168ZM160.447 61.168C159.924 61.168 159.448 61.0467 159.019 60.804C158.59 60.552 158.249 60.2067 157.997 59.768C157.754 59.32 157.633 58.8067 157.633 58.228V53.496H158.683V58.102C158.683 58.5033 158.762 58.858 158.921 59.166C159.089 59.4647 159.318 59.698 159.607 59.866C159.906 60.034 160.246 60.118 160.629 60.118C161.012 60.118 161.352 60.034 161.651 59.866C161.95 59.6887 162.183 59.4413 162.351 59.124C162.519 58.7973 162.603 58.41 162.603 57.962V53.496H163.653V61H162.603V59.544L162.841 59.6C162.664 60.0853 162.36 60.468 161.931 60.748C161.502 61.028 161.007 61.168 160.447 61.168ZM165.812 61V53.496H166.862V54.924L166.694 54.714C166.9 54.2753 167.203 53.9347 167.604 53.692C168.015 53.4493 168.463 53.328 168.948 53.328C169.527 53.328 170.05 53.4913 170.516 53.818C170.983 54.1447 171.314 54.5693 171.51 55.092L171.216 55.106C171.403 54.5273 171.725 54.0887 172.182 53.79C172.649 53.482 173.162 53.328 173.722 53.328C174.226 53.328 174.688 53.4493 175.108 53.692C175.538 53.9347 175.878 54.2707 176.13 54.7C176.392 55.12 176.522 55.596 176.522 56.128V61H175.472V56.534C175.472 56.0767 175.388 55.6893 175.22 55.372C175.062 55.0547 174.842 54.812 174.562 54.644C174.282 54.4667 173.96 54.378 173.596 54.378C173.242 54.378 172.92 54.4667 172.63 54.644C172.341 54.812 172.112 55.0593 171.944 55.386C171.776 55.7033 171.692 56.086 171.692 56.534V61H170.642V56.534C170.642 56.0767 170.558 55.6893 170.39 55.372C170.232 55.0547 170.012 54.812 169.732 54.644C169.452 54.4667 169.13 54.378 168.766 54.378C168.402 54.378 168.076 54.4667 167.786 54.644C167.506 54.812 167.282 55.0593 167.114 55.386C166.946 55.7033 166.862 56.086 166.862 56.534V61H165.812ZM184.294 61.168C183.594 61.168 182.964 61 182.404 60.664C181.844 60.3187 181.401 59.852 181.074 59.264C180.757 58.6667 180.598 57.9947 180.598 57.248C180.598 56.492 180.757 55.82 181.074 55.232C181.401 54.644 181.839 54.182 182.39 53.846C182.95 53.5007 183.585 53.328 184.294 53.328C184.938 53.328 185.512 53.468 186.016 53.748C186.52 54.028 186.917 54.406 187.206 54.882L187.038 55.176V50.402H188.088V61H187.038V59.32L187.206 59.474C186.945 60.0153 186.553 60.4353 186.03 60.734C185.517 61.0233 184.938 61.168 184.294 61.168ZM184.35 60.118C184.854 60.118 185.307 59.992 185.708 59.74C186.119 59.488 186.441 59.1473 186.674 58.718C186.917 58.2793 187.038 57.7893 187.038 57.248C187.038 56.7067 186.917 56.2213 186.674 55.792C186.441 55.3533 186.119 55.008 185.708 54.756C185.307 54.504 184.854 54.378 184.35 54.378C183.855 54.378 183.407 54.504 183.006 54.756C182.605 55.008 182.287 55.3487 182.054 55.778C181.83 56.2073 181.718 56.6973 181.718 57.248C181.718 57.7893 181.83 58.2793 182.054 58.718C182.287 59.1473 182.6 59.488 182.992 59.74C183.393 59.992 183.846 60.118 184.35 60.118ZM193.758 61.168C193.049 61.168 192.405 61 191.826 60.664C191.247 60.3187 190.785 59.852 190.44 59.264C190.104 58.6667 189.936 57.99 189.936 57.234C189.936 56.4873 190.104 55.82 190.44 55.232C190.776 54.644 191.229 54.182 191.798 53.846C192.377 53.5007 193.03 53.328 193.758 53.328C194.486 53.328 195.135 53.496 195.704 53.832C196.283 54.168 196.735 54.63 197.062 55.218C197.398 55.806 197.566 56.478 197.566 57.234C197.566 57.9993 197.393 58.6807 197.048 59.278C196.703 59.866 196.241 60.328 195.662 60.664C195.093 61 194.458 61.168 193.758 61.168ZM193.758 60.118C194.262 60.118 194.715 59.992 195.116 59.74C195.527 59.488 195.849 59.1427 196.082 58.704C196.325 58.2653 196.446 57.7753 196.446 57.234C196.446 56.6927 196.325 56.2073 196.082 55.778C195.849 55.3487 195.527 55.008 195.116 54.756C194.715 54.504 194.262 54.378 193.758 54.378C193.254 54.378 192.797 54.504 192.386 54.756C191.985 55.008 191.663 55.3487 191.42 55.778C191.177 56.2073 191.056 56.6927 191.056 57.234C191.056 57.7753 191.177 58.2653 191.42 58.704C191.663 59.1427 191.985 59.488 192.386 59.74C192.797 59.992 193.254 60.118 193.758 60.118ZM199.418 61V50.402H200.468V61H199.418ZM206.131 61.168C205.422 61.168 204.778 61 204.199 60.664C203.62 60.3187 203.158 59.852 202.813 59.264C202.477 58.6667 202.309 57.99 202.309 57.234C202.309 56.4873 202.477 55.82 202.813 55.232C203.149 54.644 203.602 54.182 204.171 53.846C204.75 53.5007 205.403 53.328 206.131 53.328C206.859 53.328 207.508 53.496 208.077 53.832C208.656 54.168 209.108 54.63 209.435 55.218C209.771 55.806 209.939 56.478 209.939 57.234C209.939 57.9993 209.766 58.6807 209.421 59.278C209.076 59.866 208.614 60.328 208.035 60.664C207.466 61 206.831 61.168 206.131 61.168ZM206.131 60.118C206.635 60.118 207.088 59.992 207.489 59.74C207.9 59.488 208.222 59.1427 208.455 58.704C208.698 58.2653 208.819 57.7753 208.819 57.234C208.819 56.6927 208.698 56.2073 208.455 55.778C208.222 55.3487 207.9 55.008 207.489 54.756C207.088 54.504 206.635 54.378 206.131 54.378C205.627 54.378 205.17 54.504 204.759 54.756C204.358 55.008 204.036 55.3487 203.793 55.778C203.55 56.2073 203.429 56.6927 203.429 57.234C203.429 57.7753 203.55 58.2653 203.793 58.704C204.036 59.1427 204.358 59.488 204.759 59.74C205.17 59.992 205.627 60.118 206.131 60.118ZM211.791 61V53.496H212.841V54.728L212.701 54.546C212.878 54.1913 213.144 53.9113 213.499 53.706C213.863 53.5007 214.302 53.398 214.815 53.398H215.291V54.448H214.633C214.092 54.448 213.658 54.616 213.331 54.952C213.004 55.288 212.841 55.764 212.841 56.38V61H211.791ZM221.504 61.168C220.786 61.168 220.156 60.986 219.614 60.622C219.073 60.258 218.681 59.7633 218.438 59.138L219.32 58.718C219.535 59.1753 219.834 59.5393 220.216 59.81C220.608 60.0807 221.038 60.216 221.504 60.216C221.952 60.216 222.33 60.1087 222.638 59.894C222.946 59.67 223.1 59.3807 223.1 59.026C223.1 58.7647 223.026 58.5593 222.876 58.41C222.727 58.2513 222.554 58.13 222.358 58.046C222.162 57.962 221.99 57.9013 221.84 57.864L220.762 57.556C220.072 57.36 219.572 57.0847 219.264 56.73C218.956 56.3753 218.802 55.9647 218.802 55.498C218.802 55.0593 218.914 54.6767 219.138 54.35C219.362 54.0233 219.666 53.7713 220.048 53.594C220.431 53.4167 220.856 53.328 221.322 53.328C221.957 53.328 222.531 53.496 223.044 53.832C223.567 54.1587 223.936 54.616 224.15 55.204L223.254 55.624C223.068 55.204 222.797 54.8773 222.442 54.644C222.097 54.4013 221.71 54.28 221.28 54.28C220.86 54.28 220.524 54.3873 220.272 54.602C220.02 54.8167 219.894 55.0873 219.894 55.414C219.894 55.666 219.96 55.8667 220.09 56.016C220.221 56.1653 220.37 56.2773 220.538 56.352C220.716 56.4267 220.87 56.4827 221 56.52L222.246 56.884C222.853 57.0613 223.324 57.3367 223.66 57.71C224.006 58.0833 224.178 58.522 224.178 59.026C224.178 59.4367 224.062 59.8053 223.828 60.132C223.604 60.4587 223.292 60.7153 222.89 60.902C222.489 61.0793 222.027 61.168 221.504 61.168ZM226.023 61V53.496H227.073V61H226.023ZM226.023 52.11V50.57H227.073V52.11H226.023ZM232.093 61.084C231.421 61.084 230.903 60.888 230.539 60.496C230.175 60.104 229.993 59.544 229.993 58.816V54.546H228.607V53.496H228.957C229.274 53.496 229.526 53.3933 229.713 53.188C229.899 52.9733 229.993 52.7073 229.993 52.39V51.76H231.043V53.496H232.695V54.546H231.043V58.816C231.043 59.068 231.08 59.292 231.155 59.488C231.229 59.6747 231.355 59.824 231.533 59.936C231.719 60.048 231.967 60.104 232.275 60.104C232.349 60.104 232.438 60.0993 232.541 60.09C232.643 60.0807 232.732 60.0713 232.807 60.062V61C232.695 61.028 232.569 61.0467 232.429 61.056C232.289 61.0747 232.177 61.084 232.093 61.084ZM95.248 81.168C94.772 81.168 94.3473 81.0793 93.974 80.902C93.6007 80.7153 93.3067 80.4633 93.092 80.146C92.8773 79.8287 92.77 79.4647 92.77 79.054C92.77 78.662 92.854 78.3073 93.022 77.99C93.19 77.6633 93.4513 77.388 93.806 77.164C94.1607 76.94 94.6133 76.7813 95.164 76.688L98.104 76.198V77.15L95.416 77.598C94.8747 77.6913 94.4827 77.864 94.24 78.116C94.0067 78.368 93.89 78.6667 93.89 79.012C93.89 79.348 94.0207 79.6327 94.282 79.866C94.5527 80.0993 94.898 80.216 95.318 80.216C95.8313 80.216 96.2793 80.1087 96.662 79.894C97.0447 79.67 97.3433 79.3713 97.558 78.998C97.7727 78.6247 97.88 78.2093 97.88 77.752V75.848C97.88 75.4 97.7167 75.036 97.39 74.756C97.0633 74.476 96.6387 74.336 96.116 74.336C95.6587 74.336 95.2573 74.4527 94.912 74.686C94.5667 74.91 94.31 75.204 94.142 75.568L93.19 75.05C93.33 74.7327 93.5493 74.4433 93.848 74.182C94.156 73.9207 94.506 73.7153 94.898 73.566C95.29 73.4073 95.696 73.328 96.116 73.328C96.6667 73.328 97.152 73.4353 97.572 73.65C98.0013 73.8647 98.3327 74.1633 98.566 74.546C98.8087 74.9193 98.93 75.3533 98.93 75.848V81H97.88V79.502L98.034 79.656C97.9033 79.936 97.698 80.1927 97.418 80.426C97.1473 80.65 96.8253 80.832 96.452 80.972C96.088 81.1027 95.6867 81.168 95.248 81.168ZM101.09 81V73.496H102.14V74.924L101.972 74.714C102.177 74.2753 102.48 73.9347 102.882 73.692C103.292 73.4493 103.74 73.328 104.226 73.328C104.804 73.328 105.327 73.4913 105.794 73.818C106.26 74.1447 106.592 74.5693 106.788 75.092L106.494 75.106C106.68 74.5273 107.002 74.0887 107.46 73.79C107.926 73.482 108.44 73.328 109 73.328C109.504 73.328 109.966 73.4493 110.386 73.692C110.815 73.9347 111.156 74.2707 111.408 74.7C111.669 75.12 111.8 75.596 111.8 76.128V81H110.75V76.534C110.75 76.0767 110.666 75.6893 110.498 75.372C110.339 75.0547 110.12 74.812 109.84 74.644C109.56 74.4667 109.238 74.378 108.874 74.378C108.519 74.378 108.197 74.4667 107.908 74.644C107.618 74.812 107.39 75.0593 107.222 75.386C107.054 75.7033 106.97 76.086 106.97 76.534V81H105.92V76.534C105.92 76.0767 105.836 75.6893 105.668 75.372C105.509 75.0547 105.29 74.812 105.01 74.644C104.73 74.4667 104.408 74.378 104.044 74.378C103.68 74.378 103.353 74.4667 103.064 74.644C102.784 74.812 102.56 75.0593 102.392 75.386C102.224 75.7033 102.14 76.086 102.14 76.534V81H101.09ZM117.221 81.168C116.521 81.168 115.886 81 115.317 80.664C114.757 80.3187 114.313 79.8473 113.987 79.25C113.66 78.6527 113.497 77.976 113.497 77.22C113.497 76.464 113.655 75.7967 113.973 75.218C114.29 74.63 114.719 74.168 115.261 73.832C115.811 73.496 116.427 73.328 117.109 73.328C117.65 73.328 118.131 73.4307 118.551 73.636C118.98 73.832 119.344 74.1027 119.643 74.448C119.941 74.784 120.17 75.1667 120.329 75.596C120.487 76.016 120.567 76.45 120.567 76.898C120.567 76.9913 120.562 77.0987 120.553 77.22C120.543 77.332 120.529 77.4487 120.511 77.57H114.169V76.59H119.909L119.405 77.01C119.489 76.4967 119.428 76.0393 119.223 75.638C119.027 75.2273 118.742 74.9053 118.369 74.672C117.995 74.4293 117.575 74.308 117.109 74.308C116.642 74.308 116.208 74.4293 115.807 74.672C115.415 74.9147 115.107 75.2553 114.883 75.694C114.659 76.1233 114.57 76.6367 114.617 77.234C114.57 77.8313 114.663 78.354 114.897 78.802C115.139 79.2407 115.466 79.5813 115.877 79.824C116.297 80.0667 116.745 80.188 117.221 80.188C117.771 80.188 118.233 80.0573 118.607 79.796C118.98 79.5347 119.283 79.208 119.517 78.816L120.413 79.292C120.263 79.628 120.035 79.9407 119.727 80.23C119.419 80.51 119.05 80.7387 118.621 80.916C118.201 81.084 117.734 81.168 117.221 81.168ZM125.288 81.084C124.616 81.084 124.098 80.888 123.734 80.496C123.37 80.104 123.188 79.544 123.188 78.816V74.546H121.802V73.496H122.152C122.469 73.496 122.721 73.3933 122.908 73.188C123.095 72.9733 123.188 72.7073 123.188 72.39V71.76H124.238V73.496H125.89V74.546H124.238V78.816C124.238 79.068 124.275 79.292 124.35 79.488C124.425 79.6747 124.551 79.824 124.728 79.936C124.915 80.048 125.162 80.104 125.47 80.104C125.545 80.104 125.633 80.0993 125.736 80.09C125.839 80.0807 125.927 80.0713 126.002 80.062V81C125.89 81.028 125.764 81.0467 125.624 81.056C125.484 81.0747 125.372 81.084 125.288 81.084ZM127.888 82.82V82.33C128.168 82.2553 128.373 82.1107 128.504 81.896C128.634 81.6813 128.7 81.3827 128.7 81H128.168V79.46H129.288V80.636C129.288 81.2427 129.171 81.728 128.938 82.092C128.704 82.4653 128.354 82.708 127.888 82.82ZM137.428 81.168C136.691 81.168 136.042 80.9953 135.482 80.65C134.922 80.3047 134.483 79.838 134.166 79.25C133.849 78.6527 133.69 77.9807 133.69 77.234C133.69 76.4873 133.849 75.82 134.166 75.232C134.483 74.644 134.922 74.182 135.482 73.846C136.042 73.5007 136.691 73.328 137.428 73.328C137.895 73.328 138.333 73.412 138.744 73.58C139.155 73.748 139.519 73.9767 139.836 74.266C140.153 74.546 140.391 74.8727 140.55 75.246L139.598 75.736C139.411 75.3347 139.127 75.008 138.744 74.756C138.361 74.504 137.923 74.378 137.428 74.378C136.933 74.378 136.485 74.504 136.084 74.756C135.692 74.9987 135.379 75.3393 135.146 75.778C134.922 76.2073 134.81 76.6973 134.81 77.248C134.81 77.7893 134.922 78.2793 135.146 78.718C135.379 79.1473 135.692 79.488 136.084 79.74C136.485 79.992 136.933 80.118 137.428 80.118C137.923 80.118 138.357 79.992 138.73 79.74C139.113 79.488 139.402 79.152 139.598 78.732L140.55 79.25C140.391 79.614 140.153 79.9407 139.836 80.23C139.519 80.5193 139.155 80.748 138.744 80.916C138.333 81.084 137.895 81.168 137.428 81.168ZM145.906 81.168C145.197 81.168 144.553 81 143.974 80.664C143.396 80.3187 142.934 79.852 142.588 79.264C142.252 78.6667 142.084 77.99 142.084 77.234C142.084 76.4873 142.252 75.82 142.588 75.232C142.924 74.644 143.377 74.182 143.946 73.846C144.525 73.5007 145.178 73.328 145.906 73.328C146.634 73.328 147.283 73.496 147.852 73.832C148.431 74.168 148.884 74.63 149.21 75.218C149.546 75.806 149.714 76.478 149.714 77.234C149.714 77.9993 149.542 78.6807 149.196 79.278C148.851 79.866 148.389 80.328 147.81 80.664C147.241 81 146.606 81.168 145.906 81.168ZM145.906 80.118C146.41 80.118 146.863 79.992 147.264 79.74C147.675 79.488 147.997 79.1427 148.23 78.704C148.473 78.2653 148.594 77.7753 148.594 77.234C148.594 76.6927 148.473 76.2073 148.23 75.778C147.997 75.3487 147.675 75.008 147.264 74.756C146.863 74.504 146.41 74.378 145.906 74.378C145.402 74.378 144.945 74.504 144.534 74.756C144.133 75.008 143.811 75.3487 143.568 75.778C143.326 76.2073 143.204 76.6927 143.204 77.234C143.204 77.7753 143.326 78.2653 143.568 78.704C143.811 79.1427 144.133 79.488 144.534 79.74C144.945 79.992 145.402 80.118 145.906 80.118ZM151.566 81V73.496H152.616V74.952L152.378 74.896C152.565 74.4107 152.868 74.028 153.288 73.748C153.718 73.468 154.212 73.328 154.772 73.328C155.304 73.328 155.78 73.4493 156.2 73.692C156.63 73.9347 156.966 74.2707 157.208 74.7C157.46 75.12 157.586 75.596 157.586 76.128V81H156.536V76.534C156.536 76.0767 156.452 75.6893 156.284 75.372C156.126 75.0547 155.897 74.812 155.598 74.644C155.309 74.4667 154.973 74.378 154.59 74.378C154.208 74.378 153.867 74.4667 153.568 74.644C153.27 74.812 153.036 75.0593 152.868 75.386C152.7 75.7033 152.616 76.086 152.616 76.534V81H151.566ZM162.196 81.168C161.477 81.168 160.847 80.986 160.306 80.622C159.764 80.258 159.372 79.7633 159.13 79.138L160.012 78.718C160.226 79.1753 160.525 79.5393 160.908 79.81C161.3 80.0807 161.729 80.216 162.196 80.216C162.644 80.216 163.022 80.1087 163.33 79.894C163.638 79.67 163.792 79.3807 163.792 79.026C163.792 78.7647 163.717 78.5593 163.568 78.41C163.418 78.2513 163.246 78.13 163.05 78.046C162.854 77.962 162.681 77.9013 162.532 77.864L161.454 77.556C160.763 77.36 160.264 77.0847 159.956 76.73C159.648 76.3753 159.494 75.9647 159.494 75.498C159.494 75.0593 159.606 74.6767 159.83 74.35C160.054 74.0233 160.357 73.7713 160.74 73.594C161.122 73.4167 161.547 73.328 162.014 73.328C162.648 73.328 163.222 73.496 163.736 73.832C164.258 74.1587 164.627 74.616 164.842 75.204L163.946 75.624C163.759 75.204 163.488 74.8773 163.134 74.644C162.788 74.4013 162.401 74.28 161.972 74.28C161.552 74.28 161.216 74.3873 160.964 74.602C160.712 74.8167 160.586 75.0873 160.586 75.414C160.586 75.666 160.651 75.8667 160.782 76.016C160.912 76.1653 161.062 76.2773 161.23 76.352C161.407 76.4267 161.561 76.4827 161.692 76.52L162.938 76.884C163.544 77.0613 164.016 77.3367 164.352 77.71C164.697 78.0833 164.87 78.522 164.87 79.026C164.87 79.4367 164.753 79.8053 164.52 80.132C164.296 80.4587 163.983 80.7153 163.582 80.902C163.18 81.0793 162.718 81.168 162.196 81.168ZM170.131 81.168C169.431 81.168 168.796 81 168.227 80.664C167.667 80.3187 167.223 79.8473 166.897 79.25C166.57 78.6527 166.407 77.976 166.407 77.22C166.407 76.464 166.565 75.7967 166.883 75.218C167.2 74.63 167.629 74.168 168.171 73.832C168.721 73.496 169.337 73.328 170.019 73.328C170.56 73.328 171.041 73.4307 171.461 73.636C171.89 73.832 172.254 74.1027 172.553 74.448C172.851 74.784 173.08 75.1667 173.239 75.596C173.397 76.016 173.477 76.45 173.477 76.898C173.477 76.9913 173.472 77.0987 173.463 77.22C173.453 77.332 173.439 77.4487 173.421 77.57H167.079V76.59H172.819L172.315 77.01C172.399 76.4967 172.338 76.0393 172.133 75.638C171.937 75.2273 171.652 74.9053 171.279 74.672C170.905 74.4293 170.485 74.308 170.019 74.308C169.552 74.308 169.118 74.4293 168.717 74.672C168.325 74.9147 168.017 75.2553 167.793 75.694C167.569 76.1233 167.48 76.6367 167.527 77.234C167.48 77.8313 167.573 78.354 167.807 78.802C168.049 79.2407 168.376 79.5813 168.787 79.824C169.207 80.0667 169.655 80.188 170.131 80.188C170.681 80.188 171.143 80.0573 171.517 79.796C171.89 79.5347 172.193 79.208 172.427 78.816L173.323 79.292C173.173 79.628 172.945 79.9407 172.637 80.23C172.329 80.51 171.96 80.7387 171.531 80.916C171.111 81.084 170.644 81.168 170.131 81.168ZM178.758 81.168C178.021 81.168 177.372 80.9953 176.812 80.65C176.252 80.3047 175.813 79.838 175.496 79.25C175.179 78.6527 175.02 77.9807 175.02 77.234C175.02 76.4873 175.179 75.82 175.496 75.232C175.813 74.644 176.252 74.182 176.812 73.846C177.372 73.5007 178.021 73.328 178.758 73.328C179.225 73.328 179.663 73.412 180.074 73.58C180.485 73.748 180.849 73.9767 181.166 74.266C181.483 74.546 181.721 74.8727 181.88 75.246L180.928 75.736C180.741 75.3347 180.457 75.008 180.074 74.756C179.691 74.504 179.253 74.378 178.758 74.378C178.263 74.378 177.815 74.504 177.414 74.756C177.022 74.9987 176.709 75.3393 176.476 75.778C176.252 76.2073 176.14 76.6973 176.14 77.248C176.14 77.7893 176.252 78.2793 176.476 78.718C176.709 79.1473 177.022 79.488 177.414 79.74C177.815 79.992 178.263 80.118 178.758 80.118C179.253 80.118 179.687 79.992 180.06 79.74C180.443 79.488 180.732 79.152 180.928 78.732L181.88 79.25C181.721 79.614 181.483 79.9407 181.166 80.23C180.849 80.5193 180.485 80.748 180.074 80.916C179.663 81.084 179.225 81.168 178.758 81.168ZM186.593 81.084C185.921 81.084 185.403 80.888 185.039 80.496C184.675 80.104 184.493 79.544 184.493 78.816V74.546H183.107V73.496H183.457C183.774 73.496 184.026 73.3933 184.213 73.188C184.399 72.9733 184.493 72.7073 184.493 72.39V71.76H185.543V73.496H187.195V74.546H185.543V78.816C185.543 79.068 185.58 79.292 185.655 79.488C185.729 79.6747 185.855 79.824 186.033 79.936C186.219 80.048 186.467 80.104 186.775 80.104C186.849 80.104 186.938 80.0993 187.041 80.09C187.143 80.0807 187.232 80.0713 187.307 80.062V81C187.195 81.028 187.069 81.0467 186.929 81.056C186.789 81.0747 186.677 81.084 186.593 81.084ZM192.293 81.168C191.593 81.168 190.958 81 190.389 80.664C189.829 80.3187 189.385 79.8473 189.059 79.25C188.732 78.6527 188.569 77.976 188.569 77.22C188.569 76.464 188.727 75.7967 189.045 75.218C189.362 74.63 189.791 74.168 190.333 73.832C190.883 73.496 191.499 73.328 192.181 73.328C192.722 73.328 193.203 73.4307 193.623 73.636C194.052 73.832 194.416 74.1027 194.715 74.448C195.013 74.784 195.242 75.1667 195.401 75.596C195.559 76.016 195.639 76.45 195.639 76.898C195.639 76.9913 195.634 77.0987 195.625 77.22C195.615 77.332 195.601 77.4487 195.583 77.57H189.241V76.59H194.981L194.477 77.01C194.561 76.4967 194.5 76.0393 194.295 75.638C194.099 75.2273 193.814 74.9053 193.441 74.672C193.067 74.4293 192.647 74.308 192.181 74.308C191.714 74.308 191.28 74.4293 190.879 74.672C190.487 74.9147 190.179 75.2553 189.955 75.694C189.731 76.1233 189.642 76.6367 189.689 77.234C189.642 77.8313 189.735 78.354 189.969 78.802C190.211 79.2407 190.538 79.5813 190.949 79.824C191.369 80.0667 191.817 80.188 192.293 80.188C192.843 80.188 193.305 80.0573 193.679 79.796C194.052 79.5347 194.355 79.208 194.589 78.816L195.485 79.292C195.335 79.628 195.107 79.9407 194.799 80.23C194.491 80.51 194.122 80.7387 193.693 80.916C193.273 81.084 192.806 81.168 192.293 81.168ZM200.36 81.084C199.688 81.084 199.17 80.888 198.806 80.496C198.442 80.104 198.26 79.544 198.26 78.816V74.546H196.874V73.496H197.224C197.541 73.496 197.793 73.3933 197.98 73.188C198.167 72.9733 198.26 72.7073 198.26 72.39V71.76H199.31V73.496H200.962V74.546H199.31V78.816C199.31 79.068 199.347 79.292 199.422 79.488C199.497 79.6747 199.623 79.824 199.8 79.936C199.987 80.048 200.234 80.104 200.542 80.104C200.617 80.104 200.705 80.0993 200.808 80.09C200.911 80.0807 200.999 80.0713 201.074 80.062V81C200.962 81.028 200.836 81.0467 200.696 81.056C200.556 81.0747 200.444 81.084 200.36 81.084ZM205.578 81.168C205.055 81.168 204.579 81.0467 204.15 80.804C203.721 80.552 203.38 80.2067 203.128 79.768C202.885 79.32 202.764 78.8067 202.764 78.228V73.496H203.814V78.102C203.814 78.5033 203.893 78.858 204.052 79.166C204.22 79.4647 204.449 79.698 204.738 79.866C205.037 80.034 205.377 80.118 205.76 80.118C206.143 80.118 206.483 80.034 206.782 79.866C207.081 79.6887 207.314 79.4413 207.482 79.124C207.65 78.7973 207.734 78.41 207.734 77.962V73.496H208.784V81H207.734V79.544L207.972 79.6C207.795 80.0853 207.491 80.468 207.062 80.748C206.633 81.028 206.138 81.168 205.578 81.168ZM210.943 81V73.496H211.993V74.728L211.853 74.546C212.031 74.1913 212.297 73.9113 212.651 73.706C213.015 73.5007 213.454 73.398 213.967 73.398H214.443V74.448H213.785C213.244 74.448 212.81 74.616 212.483 74.952C212.157 75.288 211.993 75.764 211.993 76.38V81H210.943ZM95.248 101.168C94.772 101.168 94.3473 101.079 93.974 100.902C93.6007 100.715 93.3067 100.463 93.092 100.146C92.8773 99.8287 92.77 99.4647 92.77 99.054C92.77 98.662 92.854 98.3073 93.022 97.99C93.19 97.6633 93.4513 97.388 93.806 97.164C94.1607 96.94 94.6133 96.7813 95.164 96.688L98.104 96.198V97.15L95.416 97.598C94.8747 97.6913 94.4827 97.864 94.24 98.116C94.0067 98.368 93.89 98.6667 93.89 99.012C93.89 99.348 94.0207 99.6327 94.282 99.866C94.5527 100.099 94.898 100.216 95.318 100.216C95.8313 100.216 96.2793 100.109 96.662 99.894C97.0447 99.67 97.3433 99.3713 97.558 98.998C97.7727 98.6247 97.88 98.2093 97.88 97.752V95.848C97.88 95.4 97.7167 95.036 97.39 94.756C97.0633 94.476 96.6387 94.336 96.116 94.336C95.6587 94.336 95.2573 94.4527 94.912 94.686C94.5667 94.91 94.31 95.204 94.142 95.568L93.19 95.05C93.33 94.7327 93.5493 94.4433 93.848 94.182C94.156 93.9207 94.506 93.7153 94.898 93.566C95.29 93.4073 95.696 93.328 96.116 93.328C96.6667 93.328 97.152 93.4353 97.572 93.65C98.0013 93.8647 98.3327 94.1633 98.566 94.546C98.8087 94.9193 98.93 95.3533 98.93 95.848V101H97.88V99.502L98.034 99.656C97.9033 99.936 97.698 100.193 97.418 100.426C97.1473 100.65 96.8253 100.832 96.452 100.972C96.088 101.103 95.6867 101.168 95.248 101.168ZM104.478 101.168C103.778 101.168 103.148 101 102.588 100.664C102.028 100.319 101.584 99.852 101.258 99.264C100.94 98.6667 100.782 97.9947 100.782 97.248C100.782 96.492 100.94 95.82 101.258 95.232C101.584 94.644 102.023 94.182 102.574 93.846C103.134 93.5007 103.768 93.328 104.478 93.328C105.122 93.328 105.696 93.468 106.2 93.748C106.704 94.028 107.1 94.406 107.39 94.882L107.222 95.176V90.402H108.272V101H107.222V99.32L107.39 99.474C107.128 100.015 106.736 100.435 106.214 100.734C105.7 101.023 105.122 101.168 104.478 101.168ZM104.534 100.118C105.038 100.118 105.49 99.992 105.892 99.74C106.302 99.488 106.624 99.1473 106.858 98.718C107.1 98.2793 107.222 97.7893 107.222 97.248C107.222 96.7067 107.1 96.2213 106.858 95.792C106.624 95.3533 106.302 95.008 105.892 94.756C105.49 94.504 105.038 94.378 104.534 94.378C104.039 94.378 103.591 94.504 103.19 94.756C102.788 95.008 102.471 95.3487 102.238 95.778C102.014 96.2073 101.902 96.6973 101.902 97.248C101.902 97.7893 102.014 98.2793 102.238 98.718C102.471 99.1473 102.784 99.488 103.176 99.74C103.577 99.992 104.03 100.118 104.534 100.118ZM110.428 101V93.496H111.478V101H110.428ZM110.428 92.11V90.57H111.478V92.11H110.428ZM113.627 103.8V93.496H114.677V95.176L114.509 94.882C114.807 94.406 115.204 94.028 115.699 93.748C116.203 93.468 116.777 93.328 117.421 93.328C118.13 93.328 118.76 93.5007 119.311 93.846C119.871 94.182 120.309 94.644 120.627 95.232C120.953 95.82 121.117 96.492 121.117 97.248C121.117 97.9947 120.953 98.6667 120.627 99.264C120.309 99.852 119.871 100.319 119.311 100.664C118.76 101 118.13 101.168 117.421 101.168C116.777 101.168 116.193 101.023 115.671 100.734C115.157 100.435 114.77 100.015 114.509 99.474L114.677 99.32V103.8H113.627ZM117.365 100.118C117.869 100.118 118.317 99.992 118.709 99.74C119.11 99.488 119.423 99.1473 119.647 98.718C119.88 98.2793 119.997 97.7893 119.997 97.248C119.997 96.6973 119.88 96.2073 119.647 95.778C119.423 95.3487 119.11 95.008 118.709 94.756C118.317 94.504 117.869 94.378 117.365 94.378C116.861 94.378 116.403 94.504 115.993 94.756C115.591 95.008 115.269 95.3533 115.027 95.792C114.793 96.2213 114.677 96.7067 114.677 97.248C114.677 97.7893 114.793 98.2793 115.027 98.718C115.269 99.1473 115.591 99.488 115.993 99.74C116.403 99.992 116.861 100.118 117.365 100.118ZM122.965 101V93.496H124.015V101H122.965ZM122.965 92.11V90.57H124.015V92.11H122.965ZM128.768 101.168C128.049 101.168 127.419 100.986 126.878 100.622C126.337 100.258 125.945 99.7633 125.702 99.138L126.584 98.718C126.799 99.1753 127.097 99.5393 127.48 99.81C127.872 100.081 128.301 100.216 128.768 100.216C129.216 100.216 129.594 100.109 129.902 99.894C130.21 99.67 130.364 99.3807 130.364 99.026C130.364 98.7647 130.289 98.5593 130.14 98.41C129.991 98.2513 129.818 98.13 129.622 98.046C129.426 97.962 129.253 97.9013 129.104 97.864L128.026 97.556C127.335 97.36 126.836 97.0847 126.528 96.73C126.22 96.3753 126.066 95.9647 126.066 95.498C126.066 95.0593 126.178 94.6767 126.402 94.35C126.626 94.0233 126.929 93.7713 127.312 93.594C127.695 93.4167 128.119 93.328 128.586 93.328C129.221 93.328 129.795 93.496 130.308 93.832C130.831 94.1587 131.199 94.616 131.414 95.204L130.518 95.624C130.331 95.204 130.061 94.8773 129.706 94.644C129.361 94.4013 128.973 94.28 128.544 94.28C128.124 94.28 127.788 94.3873 127.536 94.602C127.284 94.8167 127.158 95.0873 127.158 95.414C127.158 95.666 127.223 95.8667 127.354 96.016C127.485 96.1653 127.634 96.2773 127.802 96.352C127.979 96.4267 128.133 96.4827 128.264 96.52L129.51 96.884C130.117 97.0613 130.588 97.3367 130.924 97.71C131.269 98.0833 131.442 98.522 131.442 99.026C131.442 99.4367 131.325 99.8053 131.092 100.132C130.868 100.459 130.555 100.715 130.154 100.902C129.753 101.079 129.291 101.168 128.768 101.168ZM136.717 101.168C135.98 101.168 135.331 100.995 134.771 100.65C134.211 100.305 133.772 99.838 133.455 99.25C133.138 98.6527 132.979 97.9807 132.979 97.234C132.979 96.4873 133.138 95.82 133.455 95.232C133.772 94.644 134.211 94.182 134.771 93.846C135.331 93.5007 135.98 93.328 136.717 93.328C137.184 93.328 137.622 93.412 138.033 93.58C138.444 93.748 138.808 93.9767 139.125 94.266C139.442 94.546 139.68 94.8727 139.839 95.246L138.887 95.736C138.7 95.3347 138.416 95.008 138.033 94.756C137.65 94.504 137.212 94.378 136.717 94.378C136.222 94.378 135.774 94.504 135.373 94.756C134.981 94.9987 134.668 95.3393 134.435 95.778C134.211 96.2073 134.099 96.6973 134.099 97.248C134.099 97.7893 134.211 98.2793 134.435 98.718C134.668 99.1473 134.981 99.488 135.373 99.74C135.774 99.992 136.222 100.118 136.717 100.118C137.212 100.118 137.646 99.992 138.019 99.74C138.402 99.488 138.691 99.152 138.887 98.732L139.839 99.25C139.68 99.614 139.442 99.9407 139.125 100.23C138.808 100.519 138.444 100.748 138.033 100.916C137.622 101.084 137.184 101.168 136.717 101.168ZM141.682 101V93.496H142.732V101H141.682ZM141.682 92.11V90.57H142.732V92.11H141.682ZM144.881 101V93.496H145.931V94.952L145.693 94.896C145.879 94.4107 146.183 94.028 146.603 93.748C147.032 93.468 147.527 93.328 148.087 93.328C148.619 93.328 149.095 93.4493 149.515 93.692C149.944 93.9347 150.28 94.2707 150.523 94.7C150.775 95.12 150.901 95.596 150.901 96.128V101H149.851V96.534C149.851 96.0767 149.767 95.6893 149.599 95.372C149.44 95.0547 149.211 94.812 148.913 94.644C148.623 94.4667 148.287 94.378 147.905 94.378C147.522 94.378 147.181 94.4667 146.883 94.644C146.584 94.812 146.351 95.0593 146.183 95.386C146.015 95.7033 145.931 96.086 145.931 96.534V101H144.881ZM156.462 104.08C155.949 104.08 155.473 104.001 155.034 103.842C154.605 103.683 154.231 103.464 153.914 103.184C153.606 102.913 153.368 102.596 153.2 102.232L154.166 101.714C154.315 102.069 154.581 102.377 154.964 102.638C155.347 102.899 155.837 103.03 156.434 103.03C156.891 103.03 157.311 102.941 157.694 102.764C158.077 102.587 158.385 102.325 158.618 101.98C158.851 101.635 158.968 101.21 158.968 100.706V99.04L159.136 99.194C158.875 99.7353 158.487 100.155 157.974 100.454C157.461 100.743 156.901 100.888 156.294 100.888C155.594 100.888 154.964 100.72 154.404 100.384C153.844 100.048 153.401 99.5953 153.074 99.026C152.757 98.4473 152.598 97.808 152.598 97.108C152.598 96.3987 152.757 95.7593 153.074 95.19C153.401 94.6207 153.839 94.168 154.39 93.832C154.95 93.496 155.585 93.328 156.294 93.328C156.901 93.328 157.451 93.468 157.946 93.748C158.45 94.028 158.847 94.406 159.136 94.882L158.968 95.176V93.496H160.018V100.706C160.018 101.35 159.864 101.924 159.556 102.428C159.257 102.941 158.837 103.343 158.296 103.632C157.764 103.931 157.153 104.08 156.462 104.08ZM156.35 99.838C156.835 99.838 157.274 99.7167 157.666 99.474C158.058 99.222 158.371 98.8907 158.604 98.48C158.847 98.06 158.968 97.6027 158.968 97.108C158.968 96.6133 158.847 96.1607 158.604 95.75C158.371 95.33 158.058 94.9987 157.666 94.756C157.274 94.504 156.835 94.378 156.35 94.378C155.855 94.378 155.407 94.504 155.006 94.756C154.605 94.9987 154.287 95.3253 154.054 95.736C153.83 96.1467 153.718 96.604 153.718 97.108C153.718 97.6027 153.83 98.06 154.054 98.48C154.287 98.8907 154.6 99.222 154.992 99.474C155.393 99.7167 155.846 99.838 156.35 99.838ZM167.971 101.168C167.271 101.168 166.636 101 166.067 100.664C165.507 100.319 165.063 99.8473 164.737 99.25C164.41 98.6527 164.247 97.976 164.247 97.22C164.247 96.464 164.405 95.7967 164.723 95.218C165.04 94.63 165.469 94.168 166.011 93.832C166.561 93.496 167.177 93.328 167.859 93.328C168.4 93.328 168.881 93.4307 169.301 93.636C169.73 93.832 170.094 94.1027 170.393 94.448C170.691 94.784 170.92 95.1667 171.079 95.596C171.237 96.016 171.317 96.45 171.317 96.898C171.317 96.9913 171.312 97.0987 171.303 97.22C171.293 97.332 171.279 97.4487 171.261 97.57H164.919V96.59H170.659L170.155 97.01C170.239 96.4967 170.178 96.0393 169.973 95.638C169.777 95.2273 169.492 94.9053 169.119 94.672C168.745 94.4293 168.325 94.308 167.859 94.308C167.392 94.308 166.958 94.4293 166.557 94.672C166.165 94.9147 165.857 95.2553 165.633 95.694C165.409 96.1233 165.32 96.6367 165.367 97.234C165.32 97.8313 165.413 98.354 165.647 98.802C165.889 99.2407 166.216 99.5813 166.627 99.824C167.047 100.067 167.495 100.188 167.971 100.188C168.521 100.188 168.983 100.057 169.357 99.796C169.73 99.5347 170.033 99.208 170.267 98.816L171.163 99.292C171.013 99.628 170.785 99.9407 170.477 100.23C170.169 100.51 169.8 100.739 169.371 100.916C168.951 101.084 168.484 101.168 167.971 101.168ZM173.168 101V90.402H174.218V101H173.168ZM176.367 101V93.496H177.417V101H176.367ZM176.367 92.11V90.57H177.417V92.11H176.367ZM182.436 101.084C181.764 101.084 181.246 100.888 180.882 100.496C180.518 100.104 180.336 99.544 180.336 98.816V94.546H178.95V93.496H179.3C179.618 93.496 179.87 93.3933 180.056 93.188C180.243 92.9733 180.336 92.7073 180.336 92.39V91.76H181.386V93.496H183.038V94.546H181.386V98.816C181.386 99.068 181.424 99.292 181.498 99.488C181.573 99.6747 181.699 99.824 181.876 99.936C182.063 100.048 182.31 100.104 182.618 100.104C182.693 100.104 182.782 100.099 182.884 100.09C182.987 100.081 183.076 100.071 183.15 100.062V101C183.038 101.028 182.912 101.047 182.772 101.056C182.632 101.075 182.52 101.084 182.436 101.084ZM185.036 102.82V102.33C185.316 102.255 185.521 102.111 185.652 101.896C185.783 101.681 185.848 101.383 185.848 101H185.316V99.46H186.436V100.636C186.436 101.243 186.319 101.728 186.086 102.092C185.853 102.465 185.503 102.708 185.036 102.82ZM193.75 101.168C193.032 101.168 192.402 100.986 191.86 100.622C191.319 100.258 190.927 99.7633 190.684 99.138L191.566 98.718C191.781 99.1753 192.08 99.5393 192.462 99.81C192.854 100.081 193.284 100.216 193.75 100.216C194.198 100.216 194.576 100.109 194.884 99.894C195.192 99.67 195.346 99.3807 195.346 99.026C195.346 98.7647 195.272 98.5593 195.122 98.41C194.973 98.2513 194.8 98.13 194.604 98.046C194.408 97.962 194.236 97.9013 194.086 97.864L193.008 97.556C192.318 97.36 191.818 97.0847 191.51 96.73C191.202 96.3753 191.048 95.9647 191.048 95.498C191.048 95.0593 191.16 94.6767 191.384 94.35C191.608 94.0233 191.912 93.7713 192.294 93.594C192.677 93.4167 193.102 93.328 193.568 93.328C194.203 93.328 194.777 93.496 195.29 93.832C195.813 94.1587 196.182 94.616 196.396 95.204L195.5 95.624C195.314 95.204 195.043 94.8773 194.688 94.644C194.343 94.4013 193.956 94.28 193.526 94.28C193.106 94.28 192.77 94.3873 192.518 94.602C192.266 94.8167 192.14 95.0873 192.14 95.414C192.14 95.666 192.206 95.8667 192.336 96.016C192.467 96.1653 192.616 96.2773 192.784 96.352C192.962 96.4267 193.116 96.4827 193.246 96.52L194.492 96.884C195.099 97.0613 195.57 97.3367 195.906 97.71C196.252 98.0833 196.424 98.522 196.424 99.026C196.424 99.4367 196.308 99.8053 196.074 100.132C195.85 100.459 195.538 100.715 195.136 100.902C194.735 101.079 194.273 101.168 193.75 101.168ZM201.685 101.168C200.985 101.168 200.351 101 199.781 100.664C199.221 100.319 198.778 99.8473 198.451 99.25C198.125 98.6527 197.961 97.976 197.961 97.22C197.961 96.464 198.12 95.7967 198.437 95.218C198.755 94.63 199.184 94.168 199.725 93.832C200.276 93.496 200.892 93.328 201.573 93.328C202.115 93.328 202.595 93.4307 203.015 93.636C203.445 93.832 203.809 94.1027 204.107 94.448C204.406 94.784 204.635 95.1667 204.793 95.596C204.952 96.016 205.031 96.45 205.031 96.898C205.031 96.9913 205.027 97.0987 205.017 97.22C205.008 97.332 204.994 97.4487 204.975 97.57H198.633V96.59H204.373L203.869 97.01C203.953 96.4967 203.893 96.0393 203.687 95.638C203.491 95.2273 203.207 94.9053 202.833 94.672C202.46 94.4293 202.04 94.308 201.573 94.308C201.107 94.308 200.673 94.4293 200.271 94.672C199.879 94.9147 199.571 95.2553 199.347 95.694C199.123 96.1233 199.035 96.6367 199.081 97.234C199.035 97.8313 199.128 98.354 199.361 98.802C199.604 99.2407 199.931 99.5813 200.341 99.824C200.761 100.067 201.209 100.188 201.685 100.188C202.236 100.188 202.698 100.057 203.071 99.796C203.445 99.5347 203.748 99.208 203.981 98.816L204.877 99.292C204.728 99.628 204.499 99.9407 204.191 100.23C203.883 100.51 203.515 100.739 203.085 100.916C202.665 101.084 202.199 101.168 201.685 101.168ZM210.271 101.168C209.571 101.168 208.941 101 208.381 100.664C207.821 100.319 207.377 99.852 207.051 99.264C206.733 98.6667 206.575 97.9947 206.575 97.248C206.575 96.492 206.733 95.82 207.051 95.232C207.377 94.644 207.816 94.182 208.367 93.846C208.927 93.5007 209.561 93.328 210.271 93.328C210.915 93.328 211.489 93.468 211.993 93.748C212.497 94.028 212.893 94.406 213.183 94.882L213.015 95.176V90.402H214.065V101H213.015V99.32L213.183 99.474C212.921 100.015 212.529 100.435 212.007 100.734C211.493 101.023 210.915 101.168 210.271 101.168ZM210.327 100.118C210.831 100.118 211.283 99.992 211.685 99.74C212.095 99.488 212.417 99.1473 212.651 98.718C212.893 98.2793 213.015 97.7893 213.015 97.248C213.015 96.7067 212.893 96.2213 212.651 95.792C212.417 95.3533 212.095 95.008 211.685 94.756C211.283 94.504 210.831 94.378 210.327 94.378C209.832 94.378 209.384 94.504 208.983 94.756C208.581 95.008 208.264 95.3487 208.031 95.778C207.807 96.2073 207.695 96.6973 207.695 97.248C207.695 97.7893 207.807 98.2793 208.031 98.718C208.264 99.1473 208.577 99.488 208.969 99.74C209.37 99.992 209.823 100.118 210.327 100.118ZM221.987 101.168C221.287 101.168 220.657 101 220.097 100.664C219.537 100.319 219.094 99.852 218.767 99.264C218.45 98.6667 218.291 97.9947 218.291 97.248C218.291 96.492 218.45 95.82 218.767 95.232C219.094 94.644 219.533 94.182 220.083 93.846C220.643 93.5007 221.278 93.328 221.987 93.328C222.631 93.328 223.205 93.468 223.709 93.748C224.213 94.028 224.61 94.406 224.899 94.882L224.731 95.176V90.402H225.781V101H224.731V99.32L224.899 99.474C224.638 100.015 224.246 100.435 223.723 100.734C223.21 101.023 222.631 101.168 221.987 101.168ZM222.043 100.118C222.547 100.118 223 99.992 223.401 99.74C223.812 99.488 224.134 99.1473 224.367 98.718C224.61 98.2793 224.731 97.7893 224.731 97.248C224.731 96.7067 224.61 96.2213 224.367 95.792C224.134 95.3533 223.812 95.008 223.401 94.756C223 94.504 222.547 94.378 222.043 94.378C221.549 94.378 221.101 94.504 220.699 94.756C220.298 95.008 219.981 95.3487 219.747 95.778C219.523 96.2073 219.411 96.6973 219.411 97.248C219.411 97.7893 219.523 98.2793 219.747 98.718C219.981 99.1473 220.293 99.488 220.685 99.74C221.087 99.992 221.539 100.118 222.043 100.118ZM231.451 101.168C230.742 101.168 230.098 101 229.519 100.664C228.941 100.319 228.479 99.852 228.133 99.264C227.797 98.6667 227.629 97.99 227.629 97.234C227.629 96.4873 227.797 95.82 228.133 95.232C228.469 94.644 228.922 94.182 229.491 93.846C230.07 93.5007 230.723 93.328 231.451 93.328C232.179 93.328 232.828 93.496 233.397 93.832C233.976 94.168 234.429 94.63 234.755 95.218C235.091 95.806 235.259 96.478 235.259 97.234C235.259 97.9993 235.087 98.6807 234.741 99.278C234.396 99.866 233.934 100.328 233.355 100.664C232.786 101 232.151 101.168 231.451 101.168ZM231.451 100.118C231.955 100.118 232.408 99.992 232.809 99.74C233.22 99.488 233.542 99.1427 233.775 98.704C234.018 98.2653 234.139 97.7753 234.139 97.234C234.139 96.6927 234.018 96.2073 233.775 95.778C233.542 95.3487 233.22 95.008 232.809 94.756C232.408 94.504 231.955 94.378 231.451 94.378C230.947 94.378 230.49 94.504 230.079 94.756C229.678 95.008 229.356 95.3487 229.113 95.778C228.871 96.2073 228.749 96.6927 228.749 97.234C228.749 97.7753 228.871 98.2653 229.113 98.704C229.356 99.1427 229.678 99.488 230.079 99.74C230.49 99.992 230.947 100.118 231.451 100.118ZM96.494 121.168C95.794 121.168 95.1593 121 94.59 120.664C94.03 120.319 93.5867 119.847 93.26 119.25C92.9333 118.653 92.77 117.976 92.77 117.22C92.77 116.464 92.9287 115.797 93.246 115.218C93.5633 114.63 93.9927 114.168 94.534 113.832C95.0847 113.496 95.7007 113.328 96.382 113.328C96.9233 113.328 97.404 113.431 97.824 113.636C98.2533 113.832 98.6173 114.103 98.916 114.448C99.2147 114.784 99.4433 115.167 99.602 115.596C99.7607 116.016 99.84 116.45 99.84 116.898C99.84 116.991 99.8353 117.099 99.826 117.22C99.8167 117.332 99.8027 117.449 99.784 117.57H93.442V116.59H99.182L98.678 117.01C98.762 116.497 98.7013 116.039 98.496 115.638C98.3 115.227 98.0153 114.905 97.642 114.672C97.2687 114.429 96.8487 114.308 96.382 114.308C95.9153 114.308 95.4813 114.429 95.08 114.672C94.688 114.915 94.38 115.255 94.156 115.694C93.932 116.123 93.8433 116.637 93.89 117.234C93.8433 117.831 93.9367 118.354 94.17 118.802C94.4127 119.241 94.7393 119.581 95.15 119.824C95.57 120.067 96.018 120.188 96.494 120.188C97.0447 120.188 97.5067 120.057 97.88 119.796C98.2533 119.535 98.5567 119.208 98.79 118.816L99.686 119.292C99.5367 119.628 99.308 119.941 99 120.23C98.692 120.51 98.3233 120.739 97.894 120.916C97.474 121.084 97.0073 121.168 96.494 121.168ZM101.691 121V113.496H102.741V121H101.691ZM101.691 112.11V110.57H102.741V112.11H101.691ZM107.551 121.168C107.028 121.168 106.552 121.047 106.123 120.804C105.693 120.552 105.353 120.207 105.101 119.768C104.858 119.32 104.736 118.807 104.736 118.228V113.496H105.787V118.102C105.787 118.503 105.866 118.858 106.025 119.166C106.193 119.465 106.421 119.698 106.711 119.866C107.009 120.034 107.35 120.118 107.733 120.118C108.115 120.118 108.456 120.034 108.755 119.866C109.053 119.689 109.287 119.441 109.455 119.124C109.623 118.797 109.707 118.41 109.707 117.962V113.496H110.757V121H109.707V119.544L109.945 119.6C109.767 120.085 109.464 120.468 109.035 120.748C108.605 121.028 108.111 121.168 107.551 121.168ZM115.52 121.168C114.801 121.168 114.171 120.986 113.63 120.622C113.089 120.258 112.697 119.763 112.454 119.138L113.336 118.718C113.551 119.175 113.849 119.539 114.232 119.81C114.624 120.081 115.053 120.216 115.52 120.216C115.968 120.216 116.346 120.109 116.654 119.894C116.962 119.67 117.116 119.381 117.116 119.026C117.116 118.765 117.041 118.559 116.892 118.41C116.743 118.251 116.57 118.13 116.374 118.046C116.178 117.962 116.005 117.901 115.856 117.864L114.778 117.556C114.087 117.36 113.588 117.085 113.28 116.73C112.972 116.375 112.818 115.965 112.818 115.498C112.818 115.059 112.93 114.677 113.154 114.35C113.378 114.023 113.681 113.771 114.064 113.594C114.447 113.417 114.871 113.328 115.338 113.328C115.973 113.328 116.547 113.496 117.06 113.832C117.583 114.159 117.951 114.616 118.166 115.204L117.27 115.624C117.083 115.204 116.813 114.877 116.458 114.644C116.113 114.401 115.725 114.28 115.296 114.28C114.876 114.28 114.54 114.387 114.288 114.602C114.036 114.817 113.91 115.087 113.91 115.414C113.91 115.666 113.975 115.867 114.106 116.016C114.237 116.165 114.386 116.277 114.554 116.352C114.731 116.427 114.885 116.483 115.016 116.52L116.262 116.884C116.869 117.061 117.34 117.337 117.676 117.71C118.021 118.083 118.194 118.522 118.194 119.026C118.194 119.437 118.077 119.805 117.844 120.132C117.62 120.459 117.307 120.715 116.906 120.902C116.505 121.079 116.043 121.168 115.52 121.168ZM120.039 121V113.496H121.089V114.924L120.921 114.714C121.126 114.275 121.43 113.935 121.831 113.692C122.242 113.449 122.69 113.328 123.175 113.328C123.754 113.328 124.276 113.491 124.743 113.818C125.21 114.145 125.541 114.569 125.737 115.092L125.443 115.106C125.63 114.527 125.952 114.089 126.409 113.79C126.876 113.482 127.389 113.328 127.949 113.328C128.453 113.328 128.915 113.449 129.335 113.692C129.764 113.935 130.105 114.271 130.357 114.7C130.618 115.12 130.749 115.596 130.749 116.128V121H129.699V116.534C129.699 116.077 129.615 115.689 129.447 115.372C129.288 115.055 129.069 114.812 128.789 114.644C128.509 114.467 128.187 114.378 127.823 114.378C127.468 114.378 127.146 114.467 126.857 114.644C126.568 114.812 126.339 115.059 126.171 115.386C126.003 115.703 125.919 116.086 125.919 116.534V121H124.869V116.534C124.869 116.077 124.785 115.689 124.617 115.372C124.458 115.055 124.239 114.812 123.959 114.644C123.679 114.467 123.357 114.378 122.993 114.378C122.629 114.378 122.302 114.467 122.013 114.644C121.733 114.812 121.509 115.059 121.341 115.386C121.173 115.703 121.089 116.086 121.089 116.534V121H120.039ZM136.268 121.168C135.558 121.168 134.914 121 134.336 120.664C133.757 120.319 133.295 119.852 132.95 119.264C132.614 118.667 132.446 117.99 132.446 117.234C132.446 116.487 132.614 115.82 132.95 115.232C133.286 114.644 133.738 114.182 134.308 113.846C134.886 113.501 135.54 113.328 136.268 113.328C136.996 113.328 137.644 113.496 138.214 113.832C138.792 114.168 139.245 114.63 139.572 115.218C139.908 115.806 140.076 116.478 140.076 117.234C140.076 117.999 139.903 118.681 139.558 119.278C139.212 119.866 138.75 120.328 138.172 120.664C137.602 121 136.968 121.168 136.268 121.168ZM136.268 120.118C136.772 120.118 137.224 119.992 137.626 119.74C138.036 119.488 138.358 119.143 138.592 118.704C138.834 118.265 138.956 117.775 138.956 117.234C138.956 116.693 138.834 116.207 138.592 115.778C138.358 115.349 138.036 115.008 137.626 114.756C137.224 114.504 136.772 114.378 136.268 114.378C135.764 114.378 135.306 114.504 134.896 114.756C134.494 115.008 134.172 115.349 133.93 115.778C133.687 116.207 133.566 116.693 133.566 117.234C133.566 117.775 133.687 118.265 133.93 118.704C134.172 119.143 134.494 119.488 134.896 119.74C135.306 119.992 135.764 120.118 136.268 120.118ZM145.316 121.168C144.616 121.168 143.986 121 143.426 120.664C142.866 120.319 142.422 119.852 142.096 119.264C141.778 118.667 141.62 117.995 141.62 117.248C141.62 116.492 141.778 115.82 142.096 115.232C142.422 114.644 142.861 114.182 143.412 113.846C143.972 113.501 144.606 113.328 145.316 113.328C145.96 113.328 146.534 113.468 147.038 113.748C147.542 114.028 147.938 114.406 148.228 114.882L148.06 115.176V110.402H149.11V121H148.06V119.32L148.228 119.474C147.966 120.015 147.574 120.435 147.052 120.734C146.538 121.023 145.96 121.168 145.316 121.168ZM145.372 120.118C145.876 120.118 146.328 119.992 146.73 119.74C147.14 119.488 147.462 119.147 147.696 118.718C147.938 118.279 148.06 117.789 148.06 117.248C148.06 116.707 147.938 116.221 147.696 115.792C147.462 115.353 147.14 115.008 146.73 114.756C146.328 114.504 145.876 114.378 145.372 114.378C144.877 114.378 144.429 114.504 144.028 114.756C143.626 115.008 143.309 115.349 143.076 115.778C142.852 116.207 142.74 116.697 142.74 117.248C142.74 117.789 142.852 118.279 143.076 118.718C143.309 119.147 143.622 119.488 144.014 119.74C144.415 119.992 144.868 120.118 145.372 120.118ZM156.514 121.084C155.842 121.084 155.324 120.888 154.96 120.496C154.596 120.104 154.414 119.544 154.414 118.816V114.546H153.028V113.496H153.378C153.696 113.496 153.948 113.393 154.134 113.188C154.321 112.973 154.414 112.707 154.414 112.39V111.76H155.464V113.496H157.116V114.546H155.464V118.816C155.464 119.068 155.502 119.292 155.576 119.488C155.651 119.675 155.777 119.824 155.954 119.936C156.141 120.048 156.388 120.104 156.696 120.104C156.771 120.104 156.86 120.099 156.962 120.09C157.065 120.081 157.154 120.071 157.228 120.062V121C157.116 121.028 156.99 121.047 156.85 121.056C156.71 121.075 156.598 121.084 156.514 121.084ZM162.215 121.168C161.515 121.168 160.88 121 160.311 120.664C159.751 120.319 159.307 119.847 158.981 119.25C158.654 118.653 158.491 117.976 158.491 117.22C158.491 116.464 158.649 115.797 158.967 115.218C159.284 114.63 159.713 114.168 160.255 113.832C160.805 113.496 161.421 113.328 162.103 113.328C162.644 113.328 163.125 113.431 163.545 113.636C163.974 113.832 164.338 114.103 164.637 114.448C164.935 114.784 165.164 115.167 165.323 115.596C165.481 116.016 165.561 116.45 165.561 116.898C165.561 116.991 165.556 117.099 165.547 117.22C165.537 117.332 165.523 117.449 165.505 117.57H159.163V116.59H164.903L164.399 117.01C164.483 116.497 164.422 116.039 164.217 115.638C164.021 115.227 163.736 114.905 163.363 114.672C162.989 114.429 162.569 114.308 162.103 114.308C161.636 114.308 161.202 114.429 160.801 114.672C160.409 114.915 160.101 115.255 159.877 115.694C159.653 116.123 159.564 116.637 159.611 117.234C159.564 117.831 159.657 118.354 159.891 118.802C160.133 119.241 160.46 119.581 160.871 119.824C161.291 120.067 161.739 120.188 162.215 120.188C162.765 120.188 163.227 120.057 163.601 119.796C163.974 119.535 164.277 119.208 164.511 118.816L165.407 119.292C165.257 119.628 165.029 119.941 164.721 120.23C164.413 120.51 164.044 120.739 163.615 120.916C163.195 121.084 162.728 121.168 162.215 121.168ZM167.412 121V113.496H168.462V114.924L168.294 114.714C168.499 114.275 168.803 113.935 169.204 113.692C169.615 113.449 170.063 113.328 170.548 113.328C171.127 113.328 171.649 113.491 172.116 113.818C172.583 114.145 172.914 114.569 173.11 115.092L172.816 115.106C173.003 114.527 173.325 114.089 173.782 113.79C174.249 113.482 174.762 113.328 175.322 113.328C175.826 113.328 176.288 113.449 176.708 113.692C177.137 113.935 177.478 114.271 177.73 114.7C177.991 115.12 178.122 115.596 178.122 116.128V121H177.072V116.534C177.072 116.077 176.988 115.689 176.82 115.372C176.661 115.055 176.442 114.812 176.162 114.644C175.882 114.467 175.56 114.378 175.196 114.378C174.841 114.378 174.519 114.467 174.23 114.644C173.941 114.812 173.712 115.059 173.544 115.386C173.376 115.703 173.292 116.086 173.292 116.534V121H172.242V116.534C172.242 116.077 172.158 115.689 171.99 115.372C171.831 115.055 171.612 114.812 171.332 114.644C171.052 114.467 170.73 114.378 170.366 114.378C170.002 114.378 169.675 114.467 169.386 114.644C169.106 114.812 168.882 115.059 168.714 115.386C168.546 115.703 168.462 116.086 168.462 116.534V121H167.412ZM180.127 123.8V113.496H181.177V115.176L181.009 114.882C181.307 114.406 181.704 114.028 182.199 113.748C182.703 113.468 183.277 113.328 183.921 113.328C184.63 113.328 185.26 113.501 185.811 113.846C186.371 114.182 186.809 114.644 187.127 115.232C187.453 115.82 187.617 116.492 187.617 117.248C187.617 117.995 187.453 118.667 187.127 119.264C186.809 119.852 186.371 120.319 185.811 120.664C185.26 121 184.63 121.168 183.921 121.168C183.277 121.168 182.693 121.023 182.171 120.734C181.657 120.435 181.27 120.015 181.009 119.474L181.177 119.32V123.8H180.127ZM183.865 120.118C184.369 120.118 184.817 119.992 185.209 119.74C185.61 119.488 185.923 119.147 186.147 118.718C186.38 118.279 186.497 117.789 186.497 117.248C186.497 116.697 186.38 116.207 186.147 115.778C185.923 115.349 185.61 115.008 185.209 114.756C184.817 114.504 184.369 114.378 183.865 114.378C183.361 114.378 182.903 114.504 182.493 114.756C182.091 115.008 181.769 115.353 181.527 115.792C181.293 116.221 181.177 116.707 181.177 117.248C181.177 117.789 181.293 118.279 181.527 118.718C181.769 119.147 182.091 119.488 182.493 119.74C182.903 119.992 183.361 120.118 183.865 120.118ZM192.979 121.168C192.269 121.168 191.625 121 191.047 120.664C190.468 120.319 190.006 119.852 189.661 119.264C189.325 118.667 189.157 117.99 189.157 117.234C189.157 116.487 189.325 115.82 189.661 115.232C189.997 114.644 190.449 114.182 191.019 113.846C191.597 113.501 192.251 113.328 192.979 113.328C193.707 113.328 194.355 113.496 194.925 113.832C195.503 114.168 195.956 114.63 196.283 115.218C196.619 115.806 196.787 116.478 196.787 117.234C196.787 117.999 196.614 118.681 196.269 119.278C195.923 119.866 195.461 120.328 194.883 120.664C194.313 121 193.679 121.168 192.979 121.168ZM192.979 120.118C193.483 120.118 193.935 119.992 194.337 119.74C194.747 119.488 195.069 119.143 195.303 118.704C195.545 118.265 195.667 117.775 195.667 117.234C195.667 116.693 195.545 116.207 195.303 115.778C195.069 115.349 194.747 115.008 194.337 114.756C193.935 114.504 193.483 114.378 192.979 114.378C192.475 114.378 192.017 114.504 191.607 114.756C191.205 115.008 190.883 115.349 190.641 115.778C190.398 116.207 190.277 116.693 190.277 117.234C190.277 117.775 190.398 118.265 190.641 118.704C190.883 119.143 191.205 119.488 191.607 119.74C192.017 119.992 192.475 120.118 192.979 120.118ZM198.639 121V113.496H199.689V114.728L199.549 114.546C199.726 114.191 199.992 113.911 200.347 113.706C200.711 113.501 201.149 113.398 201.663 113.398H202.139V114.448H201.481C200.939 114.448 200.505 114.616 200.179 114.952C199.852 115.288 199.689 115.764 199.689 116.38V121H198.639ZM203.172 121V119.46H204.292V121H203.172Z" fill="#333333"/>
<path d="M107.4 23.14V11.53H110.34V23.29C110.34 24.45 110.19 25.47 109.89 26.35C109.59 27.23 109.17 27.99 108.63 28.63C108.09 29.27 107.45 29.79 106.71 30.19C105.97 30.57 105.15 30.85 104.25 31.03C103.35 31.23 102.4 31.33 101.4 31.33C100.36 31.33 99.38 31.23 98.46 31.03C97.56 30.85 96.73 30.57 95.97 30.19C95.23 29.79 94.59 29.27 94.05 28.63C93.53 27.99 93.12 27.23 92.82 26.35C92.52 25.47 92.37 24.45 92.37 23.29V11.53H95.31V23.14C95.31 24.64 95.58 25.79 96.12 26.59C96.66 27.39 97.39 27.94 98.31 28.24C99.25 28.54 100.28 28.69 101.4 28.69C102.5 28.69 103.5 28.54 104.4 28.24C105.3 27.94 106.02 27.39 106.56 26.59C107.12 25.79 107.4 24.64 107.4 23.14ZM115.675 11.53H118.585V31H115.675V11.53ZM138.435 11.53C140.475 11.53 142.175 11.79 143.535 12.31C144.915 12.81 146.015 13.51 146.835 14.41C147.655 15.31 148.245 16.34 148.605 17.5C148.985 18.66 149.175 19.89 149.175 21.19C149.175 22.47 148.975 23.7 148.575 24.88C148.195 26.06 147.575 27.11 146.715 28.03C145.875 28.95 144.765 29.68 143.385 30.22C142.025 30.74 140.375 31 138.435 31H130.515V11.53H138.435ZM133.455 28.36H138.405C139.945 28.36 141.215 28.16 142.215 27.76C143.215 27.34 144.005 26.79 144.585 26.11C145.185 25.41 145.605 24.64 145.845 23.8C146.085 22.94 146.205 22.07 146.205 21.19C146.205 20.29 146.085 19.43 145.845 18.61C145.605 17.77 145.185 17.02 144.585 16.36C144.005 15.68 143.215 15.15 142.215 14.77C141.215 14.37 139.945 14.17 138.405 14.17H133.455V28.36ZM156.013 22.57V28.39H168.613V31H153.073V11.53H168.583V14.14H156.013V20.02H166.303V22.57H156.013ZM171.47 24.61H174.26C174.34 25.39 174.61 26.09 175.07 26.71C175.55 27.33 176.2 27.82 177.02 28.18C177.84 28.54 178.78 28.72 179.84 28.72C180.78 28.72 181.56 28.6 182.18 28.36C182.82 28.1 183.29 27.74 183.59 27.28C183.91 26.82 184.07 26.29 184.07 25.69C184.07 25.07 183.89 24.58 183.53 24.22C183.19 23.84 182.68 23.53 182 23.29C181.32 23.03 180.47 22.78 179.45 22.54C178.57 22.34 177.7 22.09 176.84 21.79C175.98 21.47 175.19 21.08 174.47 20.62C173.77 20.16 173.2 19.6 172.76 18.94C172.34 18.28 172.13 17.49 172.13 16.57C172.13 15.59 172.4 14.7 172.94 13.9C173.5 13.08 174.31 12.43 175.37 11.95C176.43 11.45 177.71 11.2 179.21 11.2C181.55 11.2 183.32 11.78 184.52 12.94C185.72 14.1 186.3 15.65 186.26 17.59H183.5C183.46 16.25 183.03 15.29 182.21 14.71C181.41 14.11 180.37 13.81 179.09 13.81C177.99 13.81 177.04 14.03 176.24 14.47C175.46 14.91 175.07 15.62 175.07 16.6C175.07 17.02 175.16 17.39 175.34 17.71C175.52 18.01 175.82 18.29 176.24 18.55C176.66 18.79 177.23 19.03 177.95 19.27C178.67 19.51 179.56 19.77 180.62 20.05C181.44 20.23 182.22 20.46 182.96 20.74C183.72 21.02 184.4 21.37 185 21.79C185.62 22.21 186.1 22.75 186.44 23.41C186.8 24.05 186.98 24.86 186.98 25.84C186.98 26.86 186.73 27.79 186.23 28.63C185.73 29.45 184.95 30.11 183.89 30.61C182.83 31.09 181.46 31.33 179.78 31.33C178.46 31.33 177.31 31.17 176.33 30.85C175.35 30.51 174.53 30.07 173.87 29.53C173.23 28.97 172.72 28.39 172.34 27.79C171.98 27.17 171.73 26.58 171.59 26.02C171.45 25.44 171.41 24.97 171.47 24.61ZM191.144 11.53H194.054V31H191.144V11.53ZM208.631 31.33C207.091 31.33 205.701 31.1 204.461 30.64C203.221 30.18 202.161 29.52 201.281 28.66C200.401 27.8 199.721 26.76 199.241 25.54C198.781 24.3 198.551 22.93 198.551 21.43C198.551 19.89 198.801 18.49 199.301 17.23C199.801 15.97 200.511 14.89 201.431 13.99C202.371 13.09 203.471 12.4 204.731 11.92C206.011 11.44 207.411 11.2 208.931 11.2C210.671 11.2 212.191 11.49 213.491 12.07C214.791 12.65 215.831 13.47 216.611 14.53C217.391 15.59 217.851 16.83 217.991 18.25H215.351C215.091 17.35 214.661 16.57 214.061 15.91C213.481 15.25 212.761 14.74 211.901 14.38C211.041 14.02 210.051 13.84 208.931 13.84C207.431 13.84 206.121 14.17 205.001 14.83C203.901 15.47 203.041 16.36 202.421 17.5C201.821 18.64 201.521 19.95 201.521 21.43C201.521 22.89 201.791 24.17 202.331 25.27C202.891 26.35 203.701 27.19 204.761 27.79C205.841 28.39 207.151 28.69 208.691 28.69C209.871 28.69 210.911 28.49 211.811 28.09C212.711 27.67 213.441 27.09 214.001 26.35C214.581 25.59 214.981 24.69 215.201 23.65L216.701 23.47C216.401 26.05 215.531 28.01 214.091 29.35C212.671 30.67 210.851 31.33 208.631 31.33ZM216.041 31C216.041 30.36 216.061 29.63 216.101 28.81C216.161 27.97 216.231 27.13 216.311 26.29C216.391 25.43 216.461 24.66 216.521 23.98H209.141V21.64H218.741V31H216.041ZM239.536 27.79L238.696 28.09V11.53H241.606V31H238.696L225.016 14.8L225.886 14.5V31H222.946V11.53H225.886L239.536 27.79Z" fill="black"/>
<path d="M36 32.2183L53.5225 42.3274L36 52.4365L18.4775 42.3274L36 32.2183Z" stroke="black" stroke-miterlimit="10"/>
<path d="M36 52.4365L18.4775 42.3274V62.5456L36 72.6547V52.4365Z" stroke="black" stroke-miterlimit="10"/>
<path d="M18.4775 42.3274L1 32.2183V52.4365L18.4775 62.5456V42.3274Z" stroke="black" stroke-miterlimit="10"/>
<path d="M36 72.6546L18.4775 62.5455V82.7638L36 92.8729V72.6546Z" stroke="black" stroke-miterlimit="10"/>
<path d="M18.4775 62.5455L1 52.4364V72.6546L18.4775 82.7637V62.5455Z" stroke="black" stroke-miterlimit="10"/>
<path d="M18.4775 22.1091L36 32.2182L18.4775 42.3274L1 32.2182L18.4775 22.1091Z" stroke="black" stroke-miterlimit="10"/>
<path d="M53.5225 22.1091L71 32.2182L53.5225 42.3274L36 32.2182L53.5225 22.1091Z" stroke="black" stroke-miterlimit="10"/>
<path d="M36 12L53.5225 22.1091L36 32.2182L18.4775 22.1091L36 12Z" stroke="black" stroke-miterlimit="10"/>
<path d="M36 52.4365L53.5225 42.3274V62.5456L36 72.6547V52.4365Z" stroke="black" stroke-miterlimit="10"/>
<path d="M53.5225 42.3274L71 32.2183V52.4365L53.5225 62.5456V42.3274Z" stroke="black" stroke-miterlimit="10"/>
<path d="M36 72.6546L53.5225 62.5455V82.7638L36 92.8729V72.6546Z" stroke="black" stroke-miterlimit="10"/>
<path d="M53.5225 62.5455L71 52.4364V72.6546L53.5225 82.7637V62.5455Z" stroke="black" stroke-miterlimit="10"/>
</svg>
