<svg width="72" height="83" viewBox="0 0 72 83" fill="none" xmlns="http://www.w3.org/2000/svg">
<path d="M36 21.2183L53.5225 31.3274L36 41.4365L18.4775 31.3274L36 21.2183Z" stroke="black" stroke-miterlimit="10"/>
<path d="M36 41.4365L18.4775 31.3274V51.5456L36 61.6547V41.4365Z" stroke="black" stroke-miterlimit="10"/>
<path d="M18.4775 31.3274L1 21.2183V41.4365L18.4775 51.5456V31.3274Z" stroke="black" stroke-miterlimit="10"/>
<path d="M36 61.6546L18.4775 51.5455V71.7638L36 81.8729V61.6546Z" stroke="black" stroke-miterlimit="10"/>
<path d="M18.4775 51.5455L1 41.4364V61.6546L18.4775 71.7637V51.5455Z" stroke="black" stroke-miterlimit="10"/>
<path d="M18.4775 11.1091L36 21.2182L18.4775 31.3274L1 21.2182L18.4775 11.1091Z" stroke="black" stroke-miterlimit="10"/>
<path d="M53.5225 11.1091L71 21.2182L53.5225 31.3274L36 21.2182L53.5225 11.1091Z" stroke="black" stroke-miterlimit="10"/>
<path d="M36 1L53.5225 11.1091L36 21.2182L18.4775 11.1091L36 1Z" stroke="black" stroke-miterlimit="10"/>
<path d="M36 41.4365L53.5225 31.3274V51.5456L36 61.6547V41.4365Z" stroke="black" stroke-miterlimit="10"/>
<path d="M53.5225 31.3274L71 21.2183V41.4365L53.5225 51.5456V31.3274Z" stroke="black" stroke-miterlimit="10"/>
<path d="M36 61.6546L53.5225 51.5455V71.7638L36 81.8729V61.6546Z" stroke="black" stroke-miterlimit="10"/>
<path d="M53.5225 51.5455L71 41.4364V61.6546L53.5225 71.7637V51.5455Z" stroke="black" stroke-miterlimit="10"/>
</svg>
