<svg width="72" height="72" viewBox="0 0 72 72" fill="none" xmlns="http://www.w3.org/2000/svg">
<path d="M36 71C45.665 71 53.5 63.165 53.5 53.5C53.5 43.835 45.665 36 36 36C26.335 36 18.5 43.835 18.5 53.5C18.5 63.165 26.335 71 36 71Z" stroke="black" stroke-miterlimit="10"/>
<path d="M36 36C45.665 36 53.5 28.165 53.5 18.5C53.5 8.83502 45.665 1 36 1C26.335 1 18.5 8.83502 18.5 18.5C18.5 28.165 26.335 36 36 36Z" stroke="black" stroke-miterlimit="10"/>
<path d="M53.5 53.5C63.165 53.5 71 45.665 71 36C71 26.335 63.165 18.5 53.5 18.5C43.835 18.5 36 26.335 36 36C36 45.665 43.835 53.5 53.5 53.5Z" stroke="black" stroke-miterlimit="10"/>
<path d="M18.5 53.5C28.165 53.5 36 45.665 36 36C36 26.335 28.165 18.5 18.5 18.5C8.83502 18.5 1 26.335 1 36C1 45.665 8.83502 53.5 18.5 53.5Z" stroke="black" stroke-miterlimit="10"/>
</svg>
