<svg width="141" height="40" viewBox="0 0 141 40" fill="none" xmlns="http://www.w3.org/2000/svg">
<path d="M55.0448 30.6071V9.39286H65.9793C68.5984 9.39286 70.6063 9.88393 72.0031 10.8661C73.4 11.8264 74.0984 13.2232 74.0984 15.0565C74.0984 16.2351 73.8256 17.1736 73.2799 17.872C72.7343 18.5486 71.9704 19.0615 70.9883 19.4107C70.0061 19.7381 68.8385 19.9454 67.4853 20.0327L67.6162 19.8363C68.5984 19.8581 69.526 19.9454 70.399 20.0982C71.272 20.2292 72.0359 20.4692 72.6906 20.8185C73.3672 21.1677 73.891 21.6587 74.2621 22.2917C74.6549 22.9028 74.8514 23.6994 74.8514 24.6816C74.8514 25.9911 74.524 27.0714 73.8692 27.9226C73.2144 28.7738 72.2978 29.4286 71.1192 29.8869C69.9625 30.3234 68.6202 30.5635 67.0924 30.6071H55.0448ZM58.8097 27.3988H66.5686C67.9873 27.3988 69.0785 27.1587 69.8424 26.6786C70.6281 26.1766 71.021 25.4018 71.021 24.3542C71.021 23.5466 70.7809 22.9573 70.3008 22.5863C69.8424 22.2153 69.2313 21.9752 68.4674 21.8661C67.7035 21.7569 66.9069 21.7024 66.0775 21.7024H58.8097V27.3988ZM58.8097 18.5595H65.7502C67.1688 18.5595 68.2601 18.3194 69.024 17.8393C69.8097 17.3373 70.2025 16.5625 70.2025 15.5149C70.2025 14.4673 69.8097 13.7252 69.024 13.2887C68.2601 12.8304 67.2561 12.6012 66.0121 12.6012H58.8097V18.5595Z" fill="black"/>
<path d="M79.3892 9.39286H83.1868V30.6071H79.3892V9.39286Z" fill="black"/>
<path d="M108.676 26.6786L107.498 27.1369V9.39286H111.296V30.6071H107.498L91.489 13.4196L92.6348 12.9613V30.6071H88.8699V9.39286H92.6348L108.676 26.6786Z" fill="black"/>
<path d="M127.953 31C125.443 31 123.25 30.5526 121.373 29.6577C119.518 28.7629 118.077 27.497 117.052 25.8601C116.048 24.2232 115.546 22.2698 115.546 20C115.546 17.7302 116.048 15.7768 117.052 14.1399C118.077 12.4811 119.518 11.2153 121.373 10.3423C123.25 9.44742 125.443 9 127.953 9C130.507 9 132.7 9.44742 134.534 10.3423C136.389 11.2153 137.829 12.4811 138.855 14.1399C139.881 15.7768 140.394 17.7302 140.394 20C140.394 22.2698 139.881 24.2232 138.855 25.8601C137.829 27.497 136.389 28.7629 134.534 29.6577C132.7 30.5526 130.507 31 127.953 31ZM127.953 27.6607C129.612 27.6607 131.074 27.3879 132.34 26.8423C133.628 26.2748 134.632 25.4236 135.352 24.2887C136.094 23.1538 136.465 21.7242 136.465 20C136.465 18.2976 136.094 16.879 135.352 15.744C134.632 14.6091 133.628 13.7579 132.34 13.1905C131.074 12.623 129.612 12.3393 127.953 12.3393C126.316 12.3393 124.843 12.623 123.534 13.1905C122.246 13.7579 121.231 14.6091 120.489 15.744C119.747 16.879 119.376 18.2976 119.376 20C119.376 21.7242 119.747 23.1538 120.489 24.2887C121.231 25.4236 122.246 26.2748 123.534 26.8423C124.843 27.3879 126.316 27.6607 127.953 27.6607Z" fill="black"/>
<path d="M20 10H11.6667V18.3333H20V10Z" fill="black"/>
<path d="M8.33333 10H0V18.3333H8.33333V10Z" fill="black"/>
<path d="M8.33333 18.3333H0V26.6666H8.33333V18.3333Z" fill="black"/>
<path d="M30 20H21.6667V28.3333H30V20Z" fill="black"/>
<path d="M30 31.6667H21.6667V40.0001H30V31.6667Z" fill="black"/>
<path d="M21.6666 31.6667H13.3333V40.0001H21.6666V31.6667Z" fill="black"/>
<path d="M10 8.33333V0C4.46667 0 0 4.46667 0 10H8.33333C8.33333 9.08889 9.08889 8.33333 10 8.33333Z" fill="black"/>
<path d="M20 18.3333H11.6667C11.6667 23.8666 16.1334 28.3333 21.6667 28.3333V19.9999C20.7556 19.9999 20 19.2666 20 18.3333Z" fill="black"/>
<path d="M10 8.33333V0C15.5333 0 20 4.46667 20 10H11.6667C11.6667 9.08889 10.9111 8.33333 10 8.33333Z" fill="black"/>
<path d="M31.6667 30H40C40 24.4667 35.5333 20 30 20V28.3333C30.9111 28.3333 31.6667 29.0889 31.6667 30Z" fill="black"/>
<path d="M31.6667 30H40C40 35.5333 35.5333 40 30 40V31.6667C30.9111 31.6667 31.6667 30.9333 31.6667 30Z" fill="black"/>
<path d="M9 32H0V40H9V32Z" fill="black"/>
</svg>
