<svg width="18" height="83" viewBox="0 0 18 83" fill="none" xmlns="http://www.w3.org/2000/svg">
<path d="M3.1809 71.1809C3.40018 70.9616 3.74332 70.9417 3.98512 71.1211L4.05439 71.1809L9.38235 76.5086L14.7103 71.1809C14.9296 70.9616 15.2727 70.9417 15.5145 71.1211L15.5838 71.1809C15.8031 71.4002 15.823 71.7433 15.6436 71.9851L15.5838 72.0544L9.8191 77.8191C9.59982 78.0384 9.25668 78.0583 9.01488 77.8789L8.94561 77.8191L3.1809 72.0544C2.9397 71.8132 2.9397 71.4221 3.1809 71.1809Z" fill="black"/>
<path d="M3.1809 76.1809C3.40018 75.9616 3.74332 75.9417 3.98512 76.1211L4.05439 76.1809L9.38235 81.5086L14.7103 76.1809C14.9296 75.9616 15.2727 75.9417 15.5145 76.1211L15.5838 76.1809C15.8031 76.4002 15.823 76.7433 15.6436 76.9851L15.5838 77.0544L9.8191 82.8191C9.59982 83.0384 9.25668 83.0583 9.01488 82.8789L8.94561 82.8191L3.1809 77.0544C2.9397 76.8132 2.9397 76.4221 3.1809 76.1809Z" fill="black"/>
<path d="M10.192 63.545L10.192 62.063C10.5127 62.037 10.803 61.9113 11.063 61.686C11.3143 61.4607 11.5137 61.166 11.661 60.802C11.7997 60.4293 11.869 60.0047 11.869 59.528C11.869 59.1033 11.817 58.7523 11.713 58.475C11.609 58.1977 11.466 57.9897 11.284 57.851C11.102 57.7123 10.881 57.643 10.621 57.643C10.3697 57.643 10.1747 57.7253 10.036 57.89C9.89734 58.046 9.78034 58.293 9.685 58.631C9.58967 58.969 9.49434 59.398 9.399 59.918C9.31234 60.3513 9.204 60.7673 9.074 61.166C8.944 61.5647 8.77934 61.9243 8.58 62.245C8.38067 62.557 8.138 62.804 7.852 62.986C7.566 63.168 7.22367 63.259 6.825 63.259C6.36567 63.259 5.954 63.1333 5.59 62.882C5.226 62.622 4.94 62.2407 4.732 61.738C4.524 61.2267 4.42 60.6027 4.42 59.866C4.42 58.7567 4.67567 57.9117 5.187 57.331C5.68967 56.7417 6.37867 56.4557 7.254 56.473L7.254 57.903C6.708 57.9377 6.318 58.1413 6.084 58.514C5.84134 58.8867 5.72 59.359 5.72 59.931C5.72 60.451 5.811 60.8843 5.993 61.231C6.16634 61.5777 6.45667 61.751 6.864 61.751C7.02867 61.751 7.176 61.712 7.306 61.634C7.42734 61.5473 7.54 61.4087 7.644 61.218C7.73934 61.0187 7.83467 60.7543 7.93 60.425C8.01667 60.087 8.10767 59.671 8.203 59.177C8.281 58.761 8.38067 58.371 8.502 58.007C8.61467 57.6343 8.76634 57.3137 8.957 57.045C9.139 56.7677 9.373 56.551 9.659 56.395C9.945 56.239 10.296 56.161 10.712 56.161C11.1887 56.161 11.6133 56.2823 11.986 56.525C12.35 56.7677 12.6403 57.1403 12.857 57.643C13.065 58.1457 13.169 58.7957 13.169 59.593C13.169 60.1997 13.0997 60.7283 12.961 61.179C12.8137 61.621 12.6273 62.0023 12.402 62.323C12.168 62.635 11.9167 62.8863 11.648 63.077C11.3793 63.2677 11.1193 63.402 10.868 63.48C10.608 63.5493 10.3827 63.571 10.192 63.545ZM10.036 44.3625C10.6947 44.4492 11.258 44.6788 11.726 45.0515C12.1853 45.4241 12.5407 45.9268 12.792 46.5595C13.0347 47.1835 13.156 47.9115 13.156 48.7435C13.156 49.4628 13.0607 50.1258 12.87 50.7325C12.6793 51.3305 12.402 51.8505 12.038 52.2925C11.6653 52.7258 11.2103 53.0638 10.673 53.3065C10.127 53.5492 9.503 53.6705 8.801 53.6705C8.09034 53.6705 7.46634 53.5492 6.929 53.3065C6.383 53.0638 5.92367 52.7258 5.551 52.2925C5.17834 51.8505 4.89667 51.3305 4.706 50.7325C4.51534 50.1258 4.42 49.4628 4.42 48.7435C4.42 47.9028 4.54567 47.1705 4.797 46.5465C5.04834 45.9138 5.41234 45.4112 5.889 45.0385C6.357 44.6658 6.92034 44.4405 7.579 44.3625L7.579 45.8315C7.189 45.9442 6.85967 46.1305 6.591 46.3905C6.31367 46.6505 6.10567 46.9798 5.967 47.3785C5.81967 47.7772 5.746 48.2322 5.746 48.7435C5.746 49.3935 5.863 49.9785 6.097 50.4985C6.331 51.0098 6.67334 51.4128 7.124 51.7075C7.57467 51.9935 8.13367 52.1365 8.801 52.1365C9.45967 52.1365 10.0143 51.9935 10.465 51.7075C10.9157 51.4128 11.258 51.0098 11.492 50.4985C11.726 49.9785 11.843 49.3935 11.843 48.7435C11.843 48.2322 11.7737 47.7815 11.635 47.3915C11.4877 46.9928 11.2797 46.6635 11.011 46.4035C10.7337 46.1435 10.4087 45.9528 10.036 45.8315L10.036 44.3625ZM13 41.3684L4.576 41.3684L4.576 36.3244C4.576 35.6918 4.667 35.1458 4.849 34.6864C5.02234 34.2271 5.29534 33.8718 5.668 33.6204C6.032 33.3691 6.5 33.2434 7.072 33.2434C7.462 33.2434 7.79567 33.3084 8.073 33.4384C8.34167 33.5684 8.56267 33.7504 8.736 33.9844C8.90934 34.2184 9.04367 34.4914 9.139 34.8034C9.22567 35.1068 9.282 35.4361 9.308 35.7914L9.217 35.9214C9.23434 35.3668 9.29067 34.9031 9.386 34.5304C9.47267 34.1578 9.63734 33.8761 9.88 33.6854C10.1227 33.4948 10.4823 33.3994 10.959 33.3994L13 33.3994L13 34.9074L11.037 34.9074C10.7077 34.9074 10.452 34.9638 10.27 35.0764C10.088 35.1891 9.96234 35.3884 9.893 35.6744C9.815 35.9604 9.776 36.3634 9.776 36.8834L9.776 39.8734L13 39.8734L13 41.3684ZM8.554 39.8734L8.554 36.3244C8.554 35.8044 8.42834 35.4101 8.177 35.1414C7.917 34.8728 7.57467 34.7384 7.15 34.7384C6.74267 34.7384 6.43067 34.8728 6.214 35.1414C5.99734 35.4101 5.889 35.8044 5.889 36.3244L5.889 39.8734L8.554 39.8734ZM13.156 25.539C13.156 26.5357 12.9783 27.4067 12.623 28.152C12.2677 28.8887 11.765 29.4607 11.115 29.868C10.465 30.2667 9.68934 30.466 8.788 30.466C7.88667 30.466 7.111 30.2667 6.461 29.868C5.80234 29.4607 5.29967 28.8887 4.953 28.152C4.59767 27.4067 4.42 26.5357 4.42 25.539C4.42 24.525 4.59767 23.654 4.953 22.926C5.29967 22.1893 5.80233 21.6173 6.461 21.21C7.111 20.8027 7.88667 20.599 8.788 20.599C9.68934 20.599 10.465 20.8027 11.115 21.21C11.765 21.6173 12.2677 22.1893 12.623 22.926C12.9783 23.654 13.156 24.525 13.156 25.539ZM11.83 25.539C11.83 24.8803 11.7217 24.2997 11.505 23.797C11.2797 23.2857 10.9417 22.887 10.491 22.601C10.0403 22.3063 9.47267 22.159 8.788 22.159C8.112 22.159 7.54867 22.3063 7.098 22.601C6.64733 22.887 6.30933 23.2857 6.084 23.797C5.85867 24.2997 5.746 24.8803 5.746 25.539C5.746 26.189 5.85867 26.774 6.084 27.294C6.30934 27.8053 6.64734 28.2083 7.098 28.503C7.54867 28.7977 8.112 28.945 8.788 28.945C9.47267 28.945 10.0403 28.7977 10.491 28.503C10.9417 28.2083 11.2797 27.8053 11.505 27.294C11.7217 26.774 11.83 26.189 11.83 25.539ZM4.576 16.1103L11.713 16.1103L11.713 10.8193L13 10.8193L13 17.6053L4.576 17.6053L4.576 16.1103ZM4.576 6.38065L11.713 6.38065L11.713 1.08965L13 1.08965L13 7.87565L4.576 7.87565L4.576 6.38065Z" fill="black"/>
</svg>
