<svg width="150" height="40" viewBox="0 0 150 40" fill="none" xmlns="http://www.w3.org/2000/svg">
<circle cx="130" cy="20" r="19.5" stroke="black"/>
<path d="M130.314 17.4943C130.995 16.7982 131.882 16.3429 132.914 16.3429C133.998 16.3429 135.037 16.7733 135.803 17.5395C136.57 18.3058 137 19.345 137 20.4286V26H135.514V20.4286C135.514 19.739 135.24 19.0777 134.753 18.5901C134.265 18.1025 133.604 17.8286 132.914 17.8286C132.225 17.8286 131.563 18.1025 131.076 18.5901C130.588 19.0777 130.314 19.739 130.314 20.4286V26H128.829V16.7143H130.314V17.4943ZM125.114 15.2286C124.819 15.2286 124.535 15.1112 124.326 14.9022C124.117 14.6932 124 14.4098 124 14.1143C124 13.8188 124.117 13.5353 124.326 13.3264C124.535 13.1174 124.819 13 125.114 13C125.41 13 125.693 13.1174 125.902 13.3264C126.111 13.5353 126.229 13.8188 126.229 14.1143C126.229 14.4098 126.111 14.6932 125.902 14.9022C125.693 15.1112 125.41 15.2286 125.114 15.2286ZM124.371 16.7143H125.857V26H124.371V16.7143Z" fill="black"/>
<circle cx="75" cy="20" r="20" fill="black"/>
<path d="M75 17.9C74.443 17.9 73.9089 18.1212 73.5151 18.5151C73.1212 18.9089 72.9 19.443 72.9 20C72.9 20.557 73.1212 21.0911 73.5151 21.4849C73.9089 21.8788 74.443 22.1 75 22.1C75.557 22.1 76.0911 21.8788 76.4849 21.4849C76.8788 21.0911 77.1 20.557 77.1 20C77.1 19.443 76.8788 18.9089 76.4849 18.5151C76.0911 18.1212 75.557 17.9 75 17.9ZM75 16.5C75.9283 16.5 76.8185 16.8687 77.4749 17.5251C78.1313 18.1815 78.5 19.0717 78.5 20C78.5 20.9283 78.1313 21.8185 77.4749 22.4749C76.8185 23.1313 75.9283 23.5 75 23.5C74.0717 23.5 73.1815 23.1313 72.5251 22.4749C71.8687 21.8185 71.5 20.9283 71.5 20C71.5 19.0717 71.8687 18.1815 72.5251 17.5251C73.1815 16.8687 74.0717 16.5 75 16.5ZM79.55 16.325C79.55 16.5571 79.4578 16.7796 79.2937 16.9437C79.1296 17.1078 78.9071 17.2 78.675 17.2C78.4429 17.2 78.2204 17.1078 78.0563 16.9437C77.8922 16.7796 77.8 16.5571 77.8 16.325C77.8 16.0929 77.8922 15.8704 78.0563 15.7063C78.2204 15.5422 78.4429 15.45 78.675 15.45C78.9071 15.45 79.1296 15.5422 79.2937 15.7063C79.4578 15.8704 79.55 16.0929 79.55 16.325ZM75 14.4C73.2682 14.4 72.9854 14.4049 72.1797 14.4406C71.6309 14.4665 71.2627 14.54 70.9211 14.673C70.6173 14.7906 70.3982 14.9313 70.1651 15.1651C69.946 15.3768 69.7775 15.6352 69.6723 15.9211C69.5393 16.2641 69.4658 16.6316 69.4406 17.1797C69.4042 17.9525 69.4 18.2227 69.4 20C69.4 21.7318 69.4049 22.0146 69.4406 22.8203C69.4665 23.3684 69.54 23.7373 69.6723 24.0782C69.7913 24.3827 69.9313 24.6018 70.1637 24.8342C70.3996 25.0694 70.6187 25.2101 70.9197 25.3263C71.2655 25.46 71.6337 25.5342 72.1797 25.5594C72.9525 25.5958 73.2227 25.6 75 25.6C76.7318 25.6 77.0146 25.5951 77.8203 25.5594C78.3677 25.5335 78.7366 25.46 79.0782 25.3277C79.3813 25.2094 79.6018 25.0687 79.8342 24.8363C80.0701 24.6004 80.2108 24.3813 80.327 24.0803C80.46 23.7352 80.5342 23.3663 80.5594 22.8203C80.5958 22.0475 80.6 21.7773 80.6 20C80.6 18.2682 80.5951 17.9854 80.5594 17.1797C80.5335 16.6323 80.46 16.2627 80.327 15.9211C80.2215 15.6355 80.0534 15.3772 79.8349 15.1651C79.6233 14.9459 79.3649 14.7774 79.0789 14.6723C78.7359 14.5393 78.3677 14.4658 77.8203 14.4406C77.0475 14.4042 76.7773 14.4 75 14.4ZM75 13C76.9019 13 77.1392 13.007 77.8854 13.042C78.6309 13.077 79.1384 13.1939 79.585 13.3675C80.047 13.5453 80.4362 13.7861 80.8254 14.1746C81.1813 14.5245 81.4568 14.9478 81.6325 15.415C81.8054 15.8609 81.923 16.3691 81.958 17.1146C81.9909 17.8608 82 18.0981 82 20C82 21.9019 81.993 22.1392 81.958 22.8854C81.923 23.6309 81.8054 24.1384 81.6325 24.585C81.4573 25.0524 81.1818 25.4758 80.8254 25.8254C80.4754 26.1812 80.0521 26.4566 79.585 26.6325C79.1391 26.8054 78.6309 26.923 77.8854 26.958C77.1392 26.9909 76.9019 27 75 27C73.0981 27 72.8608 26.993 72.1146 26.958C71.3691 26.923 70.8616 26.8054 70.415 26.6325C69.9476 26.4571 69.5243 26.1817 69.1746 25.8254C68.8186 25.4755 68.5432 25.0522 68.3675 24.585C68.1939 24.1391 68.077 23.6309 68.042 22.8854C68.0091 22.1392 68 21.9019 68 20C68 18.0981 68.007 17.8608 68.042 17.1146C68.077 16.3684 68.1939 15.8616 68.3675 15.415C68.5427 14.9475 68.8182 14.5241 69.1746 14.1746C69.5244 13.8185 69.9477 13.543 70.415 13.3675C70.8616 13.1939 71.3684 13.077 72.1146 13.042C72.8608 13.0091 73.0981 13 75 13Z" fill="white"/>
<circle cx="20" cy="20" r="19.5" stroke="black"/>
<path d="M22.8588 14.5629C22.2653 14.5628 21.6954 14.7957 21.2719 15.2115C20.8483 15.6273 20.605 16.1927 20.5941 16.7862L20.5722 18.0161C20.571 18.0822 20.5557 18.1472 20.5276 18.2069C20.4994 18.2667 20.4589 18.3198 20.4088 18.3628C20.3586 18.4058 20.2999 18.4377 20.2366 18.4564C20.1733 18.4751 20.1067 18.4802 20.0412 18.4714L18.8222 18.3058C17.2182 18.0872 15.6813 17.3484 14.2069 16.12C13.7399 18.7049 14.652 20.4956 16.8488 21.877L18.2131 22.7345C18.2779 22.7752 18.3317 22.8312 18.3699 22.8976C18.4081 22.964 18.4294 23.0387 18.432 23.1152C18.4347 23.1917 18.4185 23.2677 18.3849 23.3365C18.3514 23.4053 18.3015 23.4649 18.2396 23.51L16.9964 24.4182C17.7359 24.4642 18.438 24.4314 19.0205 24.3159C22.705 23.5802 25.1547 20.8079 25.1547 16.2348C25.1547 15.8615 24.3644 14.5629 22.8588 14.5629ZM19.0323 16.7573C19.0459 16.0045 19.2813 15.2725 19.709 14.6528C20.1367 14.0332 20.7376 13.5535 21.4367 13.2738C22.1357 12.9941 22.9017 12.9269 23.6387 13.0805C24.3758 13.234 25.0512 13.6017 25.5803 14.1373C26.1356 14.1334 26.608 14.2739 27.6646 13.6336C27.403 14.9143 27.2742 15.4703 26.7166 16.2348C26.7166 22.2027 23.0486 25.1046 19.3267 25.8473C16.7746 26.3564 13.0636 25.5201 12 24.4096C12.542 24.3674 14.7442 24.1308 16.0171 23.1991C14.9402 22.4893 10.6537 19.9669 13.4705 13.1853C14.7926 14.7292 16.1335 15.7803 17.4923 16.3379C18.3966 16.7089 18.6184 16.701 19.033 16.758L19.0323 16.7573Z" fill="black"/>
</svg>
