<svg width="190" height="52" viewBox="0 0 190 52" fill="none" xmlns="http://www.w3.org/2000/svg">
<path d="M6.896 18.192C5.66933 18.192 4.59733 17.9733 3.68 17.536C2.77333 17.0987 2.06933 16.48 1.568 15.68C1.07733 14.88 0.832 13.9253 0.832 12.816C0.832 11.7067 1.07733 10.752 1.568 9.952C2.06933 9.14133 2.77333 8.52267 3.68 8.096C4.59733 7.65867 5.66933 7.44 6.896 7.44C8.144 7.44 9.216 7.65867 10.112 8.096C11.0187 8.52267 11.7227 9.14133 12.224 9.952C12.7253 10.752 12.976 11.7067 12.976 12.816C12.976 13.9253 12.7253 14.88 12.224 15.68C11.7227 16.48 11.0187 17.0987 10.112 17.536C9.216 17.9733 8.144 18.192 6.896 18.192ZM6.896 16.56C7.70667 16.56 8.42133 16.4267 9.04 16.16C9.66933 15.8827 10.16 15.4667 10.512 14.912C10.8747 14.3573 11.056 13.6587 11.056 12.816C11.056 11.984 10.8747 11.2907 10.512 10.736C10.16 10.1813 9.66933 9.76533 9.04 9.488C8.42133 9.21067 7.70667 9.072 6.896 9.072C6.096 9.072 5.376 9.21067 4.736 9.488C4.10667 9.76533 3.61067 10.1813 3.248 10.736C2.88533 11.2907 2.704 11.984 2.704 12.816C2.704 13.6587 2.88533 14.3573 3.248 14.912C3.61067 15.4667 4.10667 15.8827 4.736 16.16C5.376 16.4267 6.096 16.56 6.896 16.56ZM17.8744 18L13.5544 7.632H15.5864L19.2984 16.896H18.6744L22.3864 7.632H24.3864L20.0984 18H17.8744ZM27.7911 13.6V16.416H35.1511V18H25.9511V7.632H35.1351V9.216H27.7911V12.08H33.8071V13.6H27.7911ZM37.3574 18V7.632H43.5654C44.344 7.632 45.016 7.744 45.5814 7.968C46.1467 8.18133 46.584 8.51733 46.8934 8.976C47.2027 9.424 47.3574 10 47.3574 10.704C47.3574 11.184 47.2774 11.5947 47.1174 11.936C46.9574 12.2667 46.7334 12.5387 46.4454 12.752C46.1574 12.9653 45.8214 13.1307 45.4374 13.248C45.064 13.3547 44.6587 13.424 44.2214 13.456L44.0614 13.344C44.744 13.3653 45.3147 13.4347 45.7734 13.552C46.232 13.6587 46.5787 13.8613 46.8134 14.16C47.048 14.4587 47.1654 14.9013 47.1654 15.488V18H45.3094V15.584C45.3094 15.1787 45.24 14.864 45.1014 14.64C44.9627 14.416 44.7174 14.2613 44.3654 14.176C44.0134 14.08 43.5174 14.032 42.8774 14.032H39.1974V18H37.3574ZM39.1974 12.528H43.5654C44.2054 12.528 44.6907 12.3733 45.0214 12.064C45.352 11.744 45.5174 11.3227 45.5174 10.8C45.5174 10.2987 45.352 9.91467 45.0214 9.648C44.6907 9.38133 44.2054 9.248 43.5654 9.248H39.1974V12.528ZM52.4469 11.616V10.032H56.3829V18H54.5749V11.616H52.4469ZM62.9771 12.96V12.08L69.6331 18H66.9931L61.0411 12.56L66.3211 7.632H68.9131L62.9771 12.96ZM59.2011 7.632H61.0411V18H59.2011V7.632ZM70.8 12.976H77.632V14.368H70.8V12.976ZM74.976 10.704V16.656H73.456V10.704H74.976ZM83.3886 18V7.632H88.7326C90.0126 7.632 90.994 7.872 91.6766 8.352C92.3593 8.82133 92.7006 9.504 92.7006 10.4C92.7006 10.976 92.5673 11.4347 92.3006 11.776C92.034 12.1067 91.6606 12.3573 91.1806 12.528C90.7006 12.688 90.13 12.7893 89.4686 12.832L89.5326 12.736C90.0126 12.7467 90.466 12.7893 90.8926 12.864C91.3193 12.928 91.6926 13.0453 92.0126 13.216C92.3433 13.3867 92.5993 13.6267 92.7806 13.936C92.9726 14.2347 93.0686 14.624 93.0686 15.104C93.0686 15.744 92.9086 16.272 92.5886 16.688C92.2686 17.104 91.8206 17.424 91.2446 17.648C90.6793 17.8613 90.0233 17.9787 89.2766 18H83.3886ZM85.2286 16.432H89.0206C89.714 16.432 90.2473 16.3147 90.6206 16.08C91.0046 15.8347 91.1966 15.456 91.1966 14.944C91.1966 14.5493 91.0793 14.2613 90.8446 14.08C90.6206 13.8987 90.322 13.7813 89.9486 13.728C89.5753 13.6747 89.186 13.648 88.7806 13.648H85.2286V16.432ZM85.2286 12.112H88.6206C89.314 12.112 89.8473 11.9947 90.2206 11.76C90.6046 11.5147 90.7966 11.136 90.7966 10.624C90.7966 10.112 90.6046 9.74933 90.2206 9.536C89.8473 9.312 89.3566 9.2 88.7486 9.2H85.2286V12.112ZM103.75 13.616V7.632H105.59V13.76C105.59 14.4107 105.5 14.9867 105.318 15.488C105.148 15.9787 104.897 16.3947 104.566 16.736C104.246 17.0773 103.862 17.36 103.414 17.584C102.977 17.7973 102.497 17.952 101.974 18.048C101.452 18.144 100.897 18.192 100.31 18.192C99.713 18.192 99.1424 18.144 98.5984 18.048C98.065 17.952 97.5744 17.7973 97.1264 17.584C96.689 17.36 96.3104 17.0773 95.9904 16.736C95.6704 16.3947 95.4197 15.9787 95.2384 15.488C95.0677 14.9867 94.9824 14.4107 94.9824 13.76V7.632H96.8224V13.616C96.8224 14.4267 96.977 15.0453 97.2864 15.472C97.5957 15.888 98.0117 16.176 98.5344 16.336C99.057 16.4853 99.649 16.56 100.31 16.56C100.95 16.56 101.526 16.4853 102.038 16.336C102.561 16.176 102.977 15.888 103.286 15.472C103.596 15.0453 103.75 14.4267 103.75 13.616ZM107.404 14.544H109.228C109.26 14.9387 109.414 15.296 109.692 15.616C109.969 15.9253 110.332 16.1707 110.78 16.352C111.238 16.5227 111.761 16.608 112.348 16.608C112.87 16.608 113.302 16.544 113.644 16.416C113.985 16.288 114.241 16.112 114.412 15.888C114.582 15.664 114.668 15.392 114.668 15.072C114.668 14.7627 114.566 14.5227 114.364 14.352C114.172 14.1813 113.868 14.0373 113.452 13.92C113.036 13.8027 112.508 13.6853 111.868 13.568C111.334 13.4613 110.822 13.328 110.332 13.168C109.841 13.008 109.398 12.8053 109.004 12.56C108.62 12.3147 108.316 12.016 108.092 11.664C107.868 11.312 107.756 10.8907 107.756 10.4C107.756 9.83467 107.91 9.328 108.22 8.88C108.54 8.432 109.009 8.08 109.628 7.824C110.257 7.568 111.025 7.44 111.932 7.44C113.297 7.44 114.337 7.75467 115.052 8.384C115.777 9.00267 116.129 9.85067 116.108 10.928H114.348C114.305 10.256 114.054 9.776 113.596 9.488C113.137 9.18933 112.556 9.04 111.852 9.04C111.212 9.04 110.678 9.152 110.252 9.376C109.825 9.58933 109.612 9.94667 109.612 10.448C109.612 10.6507 109.66 10.832 109.756 10.992C109.862 11.1413 110.033 11.28 110.268 11.408C110.513 11.5253 110.838 11.6427 111.244 11.76C111.66 11.8667 112.172 11.9787 112.78 12.096C113.292 12.192 113.772 12.3147 114.22 12.464C114.678 12.6027 115.073 12.7893 115.404 13.024C115.745 13.248 116.012 13.536 116.204 13.888C116.396 14.24 116.492 14.672 116.492 15.184C116.492 15.7707 116.342 16.2933 116.044 16.752C115.745 17.2 115.286 17.5573 114.668 17.824C114.049 18.08 113.249 18.208 112.268 18.208C111.521 18.208 110.87 18.1227 110.316 17.952C109.772 17.7707 109.302 17.5413 108.908 17.264C108.524 16.976 108.214 16.6667 107.98 16.336C107.745 16.0053 107.58 15.6853 107.484 15.376C107.398 15.056 107.372 14.7787 107.404 14.544ZM118.677 7.632H120.533V18H118.677V7.632ZM132.991 16.08L132.415 16.304V7.632H134.271V18H132.415L124.591 9.6L125.151 9.376V18H123.311V7.632H125.151L132.991 16.08ZM138.604 13.6V16.416H145.964V18H136.764V7.632H145.948V9.216H138.604V12.08H144.62V13.6H138.604ZM147.482 14.544H149.306C149.338 14.9387 149.493 15.296 149.77 15.616C150.047 15.9253 150.41 16.1707 150.858 16.352C151.317 16.5227 151.839 16.608 152.426 16.608C152.949 16.608 153.381 16.544 153.722 16.416C154.063 16.288 154.319 16.112 154.49 15.888C154.661 15.664 154.746 15.392 154.746 15.072C154.746 14.7627 154.645 14.5227 154.442 14.352C154.25 14.1813 153.946 14.0373 153.53 13.92C153.114 13.8027 152.586 13.6853 151.946 13.568C151.413 13.4613 150.901 13.328 150.41 13.168C149.919 13.008 149.477 12.8053 149.082 12.56C148.698 12.3147 148.394 12.016 148.17 11.664C147.946 11.312 147.834 10.8907 147.834 10.4C147.834 9.83467 147.989 9.328 148.298 8.88C148.618 8.432 149.087 8.08 149.706 7.824C150.335 7.568 151.103 7.44 152.01 7.44C153.375 7.44 154.415 7.75467 155.13 8.384C155.855 9.00267 156.207 9.85067 156.186 10.928H154.426C154.383 10.256 154.133 9.776 153.674 9.488C153.215 9.18933 152.634 9.04 151.93 9.04C151.29 9.04 150.757 9.152 150.33 9.376C149.903 9.58933 149.69 9.94667 149.69 10.448C149.69 10.6507 149.738 10.832 149.834 10.992C149.941 11.1413 150.111 11.28 150.346 11.408C150.591 11.5253 150.917 11.6427 151.322 11.76C151.738 11.8667 152.25 11.9787 152.858 12.096C153.37 12.192 153.85 12.3147 154.298 12.464C154.757 12.6027 155.151 12.7893 155.482 13.024C155.823 13.248 156.09 13.536 156.282 13.888C156.474 14.24 156.57 14.672 156.57 15.184C156.57 15.7707 156.421 16.2933 156.122 16.752C155.823 17.2 155.365 17.5573 154.746 17.824C154.127 18.08 153.327 18.208 152.346 18.208C151.599 18.208 150.949 18.1227 150.394 17.952C149.85 17.7707 149.381 17.5413 148.986 17.264C148.602 16.976 148.293 16.6667 148.058 16.336C147.823 16.0053 147.658 15.6853 147.562 15.376C147.477 15.056 147.45 14.7787 147.482 14.544ZM157.763 14.544H159.587C159.619 14.9387 159.774 15.296 160.051 15.616C160.328 15.9253 160.691 16.1707 161.139 16.352C161.598 16.5227 162.12 16.608 162.707 16.608C163.23 16.608 163.662 16.544 164.003 16.416C164.344 16.288 164.6 16.112 164.771 15.888C164.942 15.664 165.027 15.392 165.027 15.072C165.027 14.7627 164.926 14.5227 164.723 14.352C164.531 14.1813 164.227 14.0373 163.811 13.92C163.395 13.8027 162.867 13.6853 162.227 13.568C161.694 13.4613 161.182 13.328 160.691 13.168C160.2 13.008 159.758 12.8053 159.363 12.56C158.979 12.3147 158.675 12.016 158.451 11.664C158.227 11.312 158.115 10.8907 158.115 10.4C158.115 9.83467 158.27 9.328 158.579 8.88C158.899 8.432 159.368 8.08 159.987 7.824C160.616 7.568 161.384 7.44 162.291 7.44C163.656 7.44 164.696 7.75467 165.411 8.384C166.136 9.00267 166.488 9.85067 166.467 10.928H164.707C164.664 10.256 164.414 9.776 163.955 9.488C163.496 9.18933 162.915 9.04 162.211 9.04C161.571 9.04 161.038 9.152 160.611 9.376C160.184 9.58933 159.971 9.94667 159.971 10.448C159.971 10.6507 160.019 10.832 160.115 10.992C160.222 11.1413 160.392 11.28 160.627 11.408C160.872 11.5253 161.198 11.6427 161.603 11.76C162.019 11.8667 162.531 11.9787 163.139 12.096C163.651 12.192 164.131 12.3147 164.579 12.464C165.038 12.6027 165.432 12.7893 165.763 13.024C166.104 13.248 166.371 13.536 166.563 13.888C166.755 14.24 166.851 14.672 166.851 15.184C166.851 15.7707 166.702 16.2933 166.403 16.752C166.104 17.2 165.646 17.5573 165.027 17.824C164.408 18.08 163.608 18.208 162.627 18.208C161.88 18.208 161.23 18.1227 160.675 17.952C160.131 17.7707 159.662 17.5413 159.267 17.264C158.883 16.976 158.574 16.6667 158.339 16.336C158.104 16.0053 157.939 15.6853 157.843 15.376C157.758 15.056 157.731 14.7787 157.763 14.544ZM6.688 44.192C5.792 44.192 4.98667 44.0747 4.272 43.84C3.55733 43.6053 2.93867 43.264 2.416 42.816C1.904 42.3573 1.50933 41.8027 1.232 41.152C0.965333 40.4907 0.832 39.7387 0.832 38.896C0.832 38.0533 0.976 37.296 1.264 36.624C1.56267 35.952 1.97867 35.3813 2.512 34.912C3.04533 34.432 3.68 34.0693 4.416 33.824C5.16267 33.568 5.98933 33.44 6.896 33.44C7.93067 33.44 8.832 33.6 9.6 33.92C10.368 34.24 10.976 34.688 11.424 35.264C11.8827 35.8293 12.144 36.5067 12.208 37.296H10.48C10.3413 36.8373 10.1173 36.4427 9.808 36.112C9.49867 35.7813 9.09867 35.5253 8.608 35.344C8.128 35.1627 7.55733 35.072 6.896 35.072C6.032 35.072 5.28533 35.232 4.656 35.552C4.03733 35.872 3.55733 36.32 3.216 36.896C2.88533 37.472 2.72 38.1387 2.72 38.896C2.72 39.6427 2.864 40.2933 3.152 40.848C3.45067 41.392 3.89867 41.8133 4.496 42.112C5.09333 42.4107 5.84 42.56 6.736 42.56C7.42933 42.56 8.03733 42.4587 8.56 42.256C9.08267 42.0533 9.51467 41.7707 9.856 41.408C10.208 41.0347 10.4533 40.6027 10.592 40.112L11.408 39.904C11.2587 41.28 10.768 42.3413 9.936 43.088C9.104 43.824 8.02133 44.192 6.688 44.192ZM10.96 44C10.96 43.6587 10.976 43.2747 11.008 42.848C11.04 42.4107 11.0827 41.968 11.136 41.52C11.1893 41.072 11.2373 40.6613 11.28 40.288H6.96V38.976H12.608V44H10.96ZM14.8418 44V33.632H21.0498C21.8284 33.632 22.5004 33.744 23.0658 33.968C23.6311 34.1813 24.0684 34.5173 24.3778 34.976C24.6871 35.424 24.8418 36 24.8418 36.704C24.8418 37.184 24.7618 37.5947 24.6018 37.936C24.4418 38.2667 24.2178 38.5387 23.9298 38.752C23.6418 38.9653 23.3058 39.1307 22.9218 39.248C22.5484 39.3547 22.1431 39.424 21.7058 39.456L21.5458 39.344C22.2284 39.3653 22.7991 39.4347 23.2578 39.552C23.7164 39.6587 24.0631 39.8613 24.2978 40.16C24.5324 40.4587 24.6498 40.9013 24.6498 41.488V44H22.7938V41.584C22.7938 41.1787 22.7244 40.864 22.5858 40.64C22.4471 40.416 22.2018 40.2613 21.8498 40.176C21.4978 40.08 21.0018 40.032 20.3618 40.032H16.6818V44H14.8418ZM16.6818 38.528H21.0498C21.6898 38.528 22.1751 38.3733 22.5058 38.064C22.8364 37.744 23.0017 37.3227 23.0017 36.8C23.0017 36.2987 22.8364 35.9147 22.5058 35.648C22.1751 35.3813 21.6898 35.248 21.0498 35.248H16.6818V38.528ZM32.7241 44.192C31.4975 44.192 30.4255 43.9733 29.5081 43.536C28.6015 43.0987 27.8975 42.48 27.3961 41.68C26.9055 40.88 26.6601 39.9253 26.6601 38.816C26.6601 37.7067 26.9055 36.752 27.3961 35.952C27.8975 35.1413 28.6015 34.5227 29.5081 34.096C30.4255 33.6587 31.4975 33.44 32.7241 33.44C33.9721 33.44 35.0441 33.6587 35.9401 34.096C36.8468 34.5227 37.5508 35.1413 38.0521 35.952C38.5535 36.752 38.8041 37.7067 38.8041 38.816C38.8041 39.9253 38.5535 40.88 38.0521 41.68C37.5508 42.48 36.8468 43.0987 35.9401 43.536C35.0441 43.9733 33.9721 44.192 32.7241 44.192ZM32.7241 42.56C33.5348 42.56 34.2495 42.4267 34.8681 42.16C35.4975 41.8827 35.9881 41.4667 36.3401 40.912C36.7028 40.3573 36.8841 39.6587 36.8841 38.816C36.8841 37.984 36.7028 37.2907 36.3401 36.736C35.9881 36.1813 35.4975 35.7653 34.8681 35.488C34.2495 35.2107 33.5348 35.072 32.7241 35.072C31.9241 35.072 31.2041 35.2107 30.5641 35.488C29.9348 35.7653 29.4388 36.1813 29.0761 36.736C28.7135 37.2907 28.5321 37.984 28.5321 38.816C28.5321 39.6587 28.7135 40.3573 29.0761 40.912C29.4388 41.4667 29.9348 41.8827 30.5641 42.16C31.2041 42.4267 31.9241 42.56 32.7241 42.56ZM43.5425 44L39.3825 33.632H41.4145L44.9505 42.752L44.3585 42.768L47.7345 33.632H49.8305L53.2065 42.768L52.6145 42.752L56.1505 33.632H58.1345L54.0225 44H51.8305L48.5025 34.896H49.0625L45.7345 44H43.5425ZM60.0051 33.632H61.8611V44H60.0051V33.632ZM74.3186 42.08L73.7426 42.304V33.632H75.5986V44H73.7426L65.9186 35.6L66.4786 35.376V44H64.6386V33.632H66.4786L74.3186 42.08ZM83.5318 44.192C82.6358 44.192 81.8304 44.0747 81.1158 43.84C80.4011 43.6053 79.7824 43.264 79.2598 42.816C78.7478 42.3573 78.3531 41.8027 78.0758 41.152C77.8091 40.4907 77.6758 39.7387 77.6758 38.896C77.6758 38.0533 77.8198 37.296 78.1078 36.624C78.4064 35.952 78.8224 35.3813 79.3558 34.912C79.8891 34.432 80.5238 34.0693 81.2598 33.824C82.0064 33.568 82.8331 33.44 83.7398 33.44C84.7744 33.44 85.6758 33.6 86.4438 33.92C87.2118 34.24 87.8198 34.688 88.2678 35.264C88.7264 35.8293 88.9878 36.5067 89.0518 37.296H87.3238C87.1851 36.8373 86.9611 36.4427 86.6518 36.112C86.3424 35.7813 85.9424 35.5253 85.4518 35.344C84.9718 35.1627 84.4011 35.072 83.7398 35.072C82.8758 35.072 82.1291 35.232 81.4998 35.552C80.8811 35.872 80.4011 36.32 80.0598 36.896C79.7291 37.472 79.5638 38.1387 79.5638 38.896C79.5638 39.6427 79.7078 40.2933 79.9958 40.848C80.2944 41.392 80.7424 41.8133 81.3398 42.112C81.9371 42.4107 82.6838 42.56 83.5798 42.56C84.2731 42.56 84.8811 42.4587 85.4038 42.256C85.9264 42.0533 86.3584 41.7707 86.6998 41.408C87.0518 41.0347 87.2971 40.6027 87.4358 40.112L88.2518 39.904C88.1024 41.28 87.6118 42.3413 86.7798 43.088C85.9478 43.824 84.8651 44.192 83.5318 44.192ZM87.8038 44C87.8038 43.6587 87.8198 43.2747 87.8518 42.848C87.8838 42.4107 87.9264 41.968 87.9798 41.52C88.0331 41.072 88.0811 40.6613 88.1238 40.288H83.8038V38.976H89.4518V44H87.8038ZM98.6206 44L94.4606 33.632H96.4926L100.029 42.752L99.4366 42.768L102.813 33.632H104.909L108.285 42.768L107.693 42.752L111.229 33.632H113.213L109.101 44H106.909L103.581 34.896H104.141L100.813 44H98.6206ZM115.083 33.632H116.939V44H115.083V33.632ZM118.757 33.632H128.805V35.216H118.757V33.632ZM122.869 35.024H124.709V44H122.869V35.024ZM131.989 38.016H139.669V39.6H131.989V38.016ZM139.397 33.632H141.253V44H139.397V33.632ZM130.357 33.632H132.197V44H130.357V33.632ZM147.451 44V33.632H152.795C154.075 33.632 155.056 33.872 155.739 34.352C156.422 34.8213 156.763 35.504 156.763 36.4C156.763 36.976 156.63 37.4347 156.363 37.776C156.096 38.1067 155.723 38.3573 155.243 38.528C154.763 38.688 154.192 38.7893 153.531 38.832L153.595 38.736C154.075 38.7467 154.528 38.7893 154.955 38.864C155.382 38.928 155.755 39.0453 156.075 39.216C156.406 39.3867 156.662 39.6267 156.843 39.936C157.035 40.2347 157.131 40.624 157.131 41.104C157.131 41.744 156.971 42.272 156.651 42.688C156.331 43.104 155.883 43.424 155.307 43.648C154.742 43.8613 154.086 43.9787 153.339 44H147.451ZM149.291 42.432H153.083C153.776 42.432 154.31 42.3147 154.683 42.08C155.067 41.8347 155.259 41.456 155.259 40.944C155.259 40.5493 155.142 40.2613 154.907 40.08C154.683 39.8987 154.384 39.7813 154.011 39.728C153.638 39.6747 153.248 39.648 152.843 39.648H149.291V42.432ZM149.291 38.112H152.683C153.376 38.112 153.91 37.9947 154.283 37.76C154.667 37.5147 154.859 37.136 154.859 36.624C154.859 36.112 154.667 35.7493 154.283 35.536C153.91 35.312 153.419 35.2 152.811 35.2H149.291V38.112ZM159.349 33.632H161.205V44H159.349V33.632ZM173.662 42.08L173.086 42.304V33.632H174.942V44H173.086L165.262 35.6L165.822 35.376V44H163.982V33.632H165.822L173.662 42.08ZM183.084 44.192C181.857 44.192 180.785 43.9733 179.868 43.536C178.961 43.0987 178.257 42.48 177.756 41.68C177.265 40.88 177.02 39.9253 177.02 38.816C177.02 37.7067 177.265 36.752 177.756 35.952C178.257 35.1413 178.961 34.5227 179.868 34.096C180.785 33.6587 181.857 33.44 183.084 33.44C184.332 33.44 185.404 33.6587 186.3 34.096C187.206 34.5227 187.91 35.1413 188.412 35.952C188.913 36.752 189.164 37.7067 189.164 38.816C189.164 39.9253 188.913 40.88 188.412 41.68C187.91 42.48 187.206 43.0987 186.3 43.536C185.404 43.9733 184.332 44.192 183.084 44.192ZM183.084 42.56C183.894 42.56 184.609 42.4267 185.227 42.16C185.857 41.8827 186.348 41.4667 186.7 40.912C187.062 40.3573 187.244 39.6587 187.244 38.816C187.244 37.984 187.062 37.2907 186.7 36.736C186.348 36.1813 185.857 35.7653 185.227 35.488C184.609 35.2107 183.894 35.072 183.084 35.072C182.284 35.072 181.564 35.2107 180.924 35.488C180.294 35.7653 179.798 36.1813 179.436 36.736C179.073 37.2907 178.892 37.984 178.892 38.816C178.892 39.6587 179.073 40.3573 179.436 40.912C179.798 41.4667 180.294 41.8827 180.924 42.16C181.564 42.4267 182.284 42.56 183.084 42.56Z" fill="black"/>
</svg>
